<svg xmlns="http://www.w3.org/2000/svg" width="24" height="25" viewBox="0 0 24 25" fill="none">
  <path d="M5.18079 6.23616H18.3366V19.392H5.18079V6.23616Z" fill="white"/>
  <path d="M6.66491 20.5572H8.57533C8.7514 20.5572 8.88346 20.61 9.01552 20.7421L10.3713 22.0891C11.4806 23.2071 12.5106 23.1983 13.6199 22.0891L14.9757 20.7421C15.1165 20.61 15.2398 20.5572 15.4247 20.5572H17.3263C18.9022 20.5572 19.6329 19.8353 19.6329 18.2506V16.349C19.6329 16.1641 19.6857 16.0409 19.8178 15.9L21.1647 14.5442C22.2828 13.4349 22.274 12.4049 21.1647 11.2956L19.8178 9.93983C19.6857 9.80778 19.6329 9.67572 19.6329 9.49964V7.58922C19.6329 6.02215 18.911 5.28263 17.3263 5.28263H15.4247C15.2398 5.28263 15.1165 5.23861 14.9757 5.10656L13.6199 3.75958C12.5106 2.6415 11.4806 2.6503 10.3713 3.75958L9.01552 5.10656C8.88346 5.23861 8.7514 5.28263 8.57533 5.28263H6.66491C5.08903 5.28263 4.35832 6.00454 4.35832 7.58922V9.49964C4.35832 9.67572 4.3143 9.80778 4.18224 9.93983L2.83526 11.2956C1.71718 12.4049 1.72599 13.4349 2.83526 14.5442L4.18224 15.9C4.3143 16.0409 4.35832 16.1641 4.35832 16.349V18.2506C4.35832 19.8265 5.08903 20.5572 6.66491 20.5572ZM11.014 17.2206C10.7146 17.2206 10.4681 17.1061 10.2392 16.798L8.02949 14.0864C7.89744 13.9103 7.8182 13.7079 7.8182 13.5142C7.8182 13.1092 8.12634 12.7835 8.53131 12.7835C8.77782 12.7835 8.9715 12.8715 9.19159 13.162L10.9788 15.4686L14.738 9.42921C14.9052 9.1563 15.1341 9.02424 15.3718 9.02424C15.7504 9.02424 16.1114 9.28835 16.1114 9.69333C16.1114 9.89581 15.9969 10.0983 15.8913 10.2744L11.7535 16.798C11.5686 17.0797 11.3133 17.2206 11.014 17.2206Z" fill="#0A84FF"/>
</svg>
