<svg width="1440" height="1440" viewBox="0 0 1440 1440" fill="none" xmlns="http://www.w3.org/2000/svg">
<g style="mix-blend-mode:overlay" opacity="0.2">
<path d="M1440 596.923L841.88 -0.00164795L718.978 123.076L596.075 -0.00164795L0.00012207 596.923L122.902 720L0.00012207 843.077L596.075 1440L718.978 1316.92L841.88 1440L1437.95 843.077L1315.05 720L1440 596.923ZM1323.25 843.077L1112.26 1056.41L975.024 918.975L917.669 976.411L1054.91 1113.85L841.88 1325.13L778.38 1259.49L915.621 1122.05L858.267 1064.62L721.026 1202.05L583.785 1064.62L526.431 1122.05L663.672 1259.49L598.124 1325.13L385.093 1113.85L522.334 976.411L464.98 918.975L327.739 1056.41L116.757 843.077L180.257 779.487L317.497 916.924L374.852 859.488L237.611 722.051L374.852 584.615L317.497 527.179L180.257 664.615L114.709 598.974L327.739 385.64L464.98 523.077L522.334 465.64L385.093 328.204L596.075 116.922L661.623 182.563L524.383 319.999L581.737 377.435L718.978 239.999L856.218 377.435L913.573 319.999L778.38 180.512L843.928 114.87L1054.91 328.204L917.669 465.64L975.024 523.077L1112.26 385.64L1323.25 596.923L1257.7 662.564L1120.46 525.128L1063.1 582.564L1200.34 720L1063.1 857.436L1120.46 914.872L1257.7 777.436L1323.25 843.077ZM415.819 720L718.978 1023.59L1022.14 720L718.978 416.41L415.819 720ZM718.978 908.718L532.576 720L718.978 533.333L905.379 720L718.978 908.718Z" fill="url(#paint0_linear_731_1859)"/>
</g>
<defs>
<linearGradient id="paint0_linear_731_1859" x1="720.002" y1="1440" x2="720" y2="-0.00168449" gradientUnits="userSpaceOnUse">
<stop stop-color="#F4EBDD"/>
<stop offset="1" stop-color="#B0ABA2"/>
</linearGradient>
</defs>
</svg>
