<svg width="1363" height="400" viewBox="0 0 1363 400" fill="none" xmlns="http://www.w3.org/2000/svg">
<path d="M1782 47.7066L1041.82 -690.986L889.733 -538.678L737.642 -690.986L0 47.7066L152.091 200.014L0 352.322L737.642 1091.01L889.733 938.707L1041.82 1091.01L1779.47 352.322L1627.37 200.014L1782 47.7066ZM1637.51 352.322L1376.42 616.322L1206.59 446.245L1135.61 517.322L1305.45 687.399L1041.82 948.86L963.243 867.63L1133.08 697.553L1062.1 626.476L892.267 796.553L722.432 626.476L651.457 697.553L821.292 867.63L740.176 948.86L476.552 687.399L646.387 517.322L575.411 446.245L405.576 616.322L144.486 352.322L223.067 273.63L392.902 443.707L463.878 372.63L294.043 202.553L463.878 32.4758L392.902 -38.6011L223.067 131.476L141.952 50.245L405.576 -213.755L575.411 -43.6781L646.387 -114.755L476.552 -284.832L737.642 -546.294L818.757 -465.063L648.922 -294.986L719.898 -223.909L889.733 -393.986L1059.57 -223.909L1130.54 -294.986L963.243 -467.601L1044.36 -548.832L1305.45 -284.832L1135.61 -114.755L1206.59 -43.6781L1376.42 -213.755L1637.51 47.7066L1556.4 128.937L1386.56 -41.1396L1315.59 29.9373L1485.42 200.014L1315.59 370.091L1386.56 441.168L1556.4 271.091L1637.51 352.322ZM514.575 200.014L889.733 575.707L1264.89 200.014L889.733 -175.678L514.575 200.014ZM889.733 433.553L659.061 200.014L889.733 -30.9858L1120.4 200.014L889.733 433.553Z" fill="url(#paint0_linear_579_2)"/>
<defs>
<linearGradient id="paint0_linear_579_2" x1="891" y1="1091.01" x2="890.998" y2="-690.986" gradientUnits="userSpaceOnUse">
<stop stop-color="#F4EBDD"/>
<stop offset="1" stop-color="#B0ABA2"/>
</linearGradient>
</defs>
</svg>
