<svg width="11" height="13" viewBox="0 0 11 13" fill="none" xmlns="http://www.w3.org/2000/svg">
<path d="M1.19924 6.40649L1.20557 8.72744L3.17767 9.88791V11.2467L0.0514238 9.41318V5.72779L1.19924 6.40649ZM1.19924 4.08555V5.43803L0.0507202 4.75862V3.40614L1.19924 2.72674L2.35338 3.40614L1.19924 4.08555ZM4.00125 3.40614L5.14977 2.72674L6.30391 3.40614L5.14977 4.08555L4.00125 3.40614Z" fill="white"/>
<path d="M2.02915 8.24637V6.88756L3.17767 7.56697V8.91945L2.02915 8.24637ZM4.00125 10.3746L5.14977 11.054L6.30391 10.3746V11.7271L5.14977 12.4065L4.00125 11.7271V10.3746ZM7.95108 3.40614L9.0996 2.72674L10.2537 3.40614V4.75862L9.0996 5.43803V4.08555L7.95108 3.40614ZM9.0996 8.72744L9.10593 6.40649L10.2544 5.72709V9.41247L7.1282 11.246V9.88721L9.0996 8.72744Z" fill="white"/>
<path d="M8.27602 8.24637L7.1275 8.91945V7.56697L8.27602 6.88756V8.24637Z" fill="white"/>
<path d="M8.27602 4.56662L8.28235 5.92542L6.30462 7.0859V9.41247L5.1561 10.0855L4.00758 9.41247V7.0859L2.02986 5.92542V4.56662L3.1833 3.88721L5.14907 5.05331L7.1268 3.88721L8.28094 4.56662H8.27602ZM2.02915 2.24637L5.14977 0.406494L8.27602 2.24637L7.1275 2.92578L5.14977 1.75968L3.17767 2.92578L2.02915 2.24637Z" fill="white"/>
</svg>
