<svg width="300" height="300" viewBox="0 0 300 300" fill="none" xmlns="http://www.w3.org/2000/svg">
<path d="M300 124.359L175.391 0L149.787 25.641L124.182 0L0 124.359L25.6045 150L0 175.641L124.182 300L149.787 274.359L175.391 300L299.573 175.641L273.969 150L300 124.359ZM275.676 175.641L231.721 220.085L203.129 191.453L191.181 203.419L219.772 232.051L175.391 276.068L162.162 262.393L190.754 233.761L178.805 221.795L150.213 250.427L121.622 221.795L109.673 233.761L138.265 262.393L124.609 276.068L80.2276 232.051L108.819 203.419L96.8706 191.453L68.2788 220.085L24.3243 175.641L37.5533 162.393L66.1451 191.026L78.0939 179.06L49.5021 150.427L78.0939 121.795L66.1451 109.829L37.5533 138.462L23.8976 124.786L68.2788 80.3419L96.8706 108.974L108.819 97.0086L80.2276 68.3761L124.182 24.359L137.838 38.0342L109.246 66.6667L121.195 78.6325L149.787 50L178.378 78.6325L190.327 66.6667L162.162 37.6068L175.818 23.9316L219.772 68.3761L191.181 97.0086L203.129 108.974L231.721 80.3419L275.676 124.359L262.02 138.034L233.428 109.402L221.479 121.368L250.071 150L221.479 178.632L233.428 190.598L262.02 161.966L275.676 175.641ZM86.6287 150L149.787 213.248L212.945 150L149.787 86.7521L86.6287 150ZM149.787 189.316L110.953 150L149.787 111.111L188.62 150L149.787 189.316Z" fill="url(#paint0_linear_578_1994)"/>
<defs>
<linearGradient id="paint0_linear_578_1994" x1="150" y1="300" x2="150" y2="-7.61261e-06" gradientUnits="userSpaceOnUse">
<stop stop-color="#F4EBDD"/>
<stop offset="1" stop-color="#B0ABA2"/>
</linearGradient>
</defs>
</svg>
