<svg width="25" height="24" viewBox="0 0 25 24" fill="none" xmlns="http://www.w3.org/2000/svg">
<path d="M24.0342 9.94871L14.0513 0L12 2.05128L9.94871 0L0 9.94871L2.05128 12L0 14.0513L9.94871 24L12 21.9487L14.0513 24L24 14.0513L21.9487 12L24.0342 9.94871ZM22.0855 14.0513L18.5641 17.6068L16.2735 15.3162L15.3162 16.2735L17.6068 18.5641L14.0513 22.0855L12.9914 20.9914L15.282 18.7008L14.3248 17.7436L12.0342 20.0342L9.74359 17.7436L8.78632 18.7008L11.0769 20.9914L9.9829 22.0855L6.42735 18.5641L8.71795 16.2735L7.76068 15.3162L5.47008 17.6068L1.94872 14.0513L3.00855 12.9914L5.29914 15.282L6.25641 14.3248L3.96581 12.0342L6.25641 9.74359L5.29914 8.78632L3.00855 11.0769L1.91453 9.9829L5.47008 6.42735L7.76068 8.71795L8.71795 7.76068L6.42735 5.47008L9.94871 1.94872L11.0427 3.04273L8.75213 5.33333L9.7094 6.2906L12 4L14.2906 6.2906L15.2479 5.33333L12.9914 3.00855L14.0855 1.91453L17.6068 5.47008L15.3162 7.76068L16.2735 8.71795L18.5641 6.42735L22.0855 9.94871L20.9914 11.0427L18.7008 8.75213L17.7436 9.7094L20.0342 12L17.7436 14.2906L18.7008 15.2479L20.9914 12.9573L22.0855 14.0513ZM6.94017 12L12 17.0598L17.0598 12L12 6.94017L6.94017 12ZM12 15.1453L8.88889 12L12 8.88889L15.1111 12L12 15.1453Z" fill="url(#paint0_linear_430_306)"/>
<defs>
<linearGradient id="paint0_linear_430_306" x1="12.0171" y1="24" x2="12.0171" y2="-6.09008e-07" gradientUnits="userSpaceOnUse">
<stop stop-color="#F4EBDD"/>
<stop offset="1" stop-color="#B0ABA2"/>
</linearGradient>
</defs>
</svg>
