<svg width="172" height="21" viewBox="0 0 172 21" fill="none" xmlns="http://www.w3.org/2000/svg">
<path d="M13.058 1.63495V4.65095H3.77599V9.48695H12.291V12.412H3.77599V17.209H13.305V20.225H0.356995V1.63495H13.058Z" fill="white"/>
<path d="M18.5223 20.225H15.2593V5.89245H18.5223V9.99395C18.6783 9.27895 18.9014 8.64412 19.1918 8.08945C19.4821 7.53045 19.8309 7.06029 20.2383 6.67895C20.6499 6.29329 21.1158 6.00079 21.6358 5.80145C22.1601 5.60212 22.7299 5.50245 23.3453 5.50245C23.9909 5.50245 24.5716 5.61295 25.0873 5.83396C25.6073 6.05062 26.0601 6.37129 26.4458 6.79596C26.8314 7.21629 27.1478 7.73629 27.3948 8.35595C27.6418 8.97129 27.8151 9.67762 27.9148 10.475C28.0491 9.69062 28.2571 8.99079 28.5388 8.37545C28.8248 7.76012 29.1779 7.24012 29.5983 6.81545C30.0186 6.38645 30.4996 6.06145 31.0413 5.84045C31.5873 5.61512 32.1853 5.50245 32.8353 5.50245C33.5806 5.50245 34.2414 5.64979 34.8178 5.94446C35.3984 6.23479 35.8859 6.65945 36.2803 7.21845C36.6789 7.77745 36.9823 8.46429 37.1903 9.27895C37.3983 10.0893 37.5023 11.0145 37.5023 12.0545V20.225H34.2393V12.3795C34.2393 9.71879 33.2664 8.38845 31.3208 8.38845C30.8008 8.38845 30.3349 8.48162 29.9233 8.66795C29.5116 8.85429 29.1649 9.12729 28.8833 9.48695C28.6016 9.84229 28.3849 10.28 28.2333 10.8C28.0859 11.32 28.0123 11.9158 28.0123 12.5875V20.225H24.7493V12.3795C24.7493 9.71879 23.7764 8.38845 21.8308 8.38845C21.3108 8.38845 20.8449 8.48162 20.4333 8.66795C20.0216 8.85429 19.6749 9.12729 19.3933 9.48695C19.1116 9.84229 18.8949 10.28 18.7433 10.8C18.5959 11.32 18.5223 11.9158 18.5223 12.5875V20.225Z" fill="white"/>
<path d="M43.0872 10.2735C43.2605 9.52812 43.5032 8.86079 43.8152 8.27145C44.1272 7.68212 44.4977 7.18379 44.9267 6.77645C45.36 6.36479 45.8475 6.05062 46.3892 5.83396C46.9352 5.61295 47.5267 5.50245 48.1637 5.50245C48.74 5.50245 49.286 5.58695 49.8017 5.75595C50.3217 5.92495 50.8005 6.16545 51.2382 6.47746C51.6758 6.78946 52.0702 7.17079 52.4212 7.62145C52.7722 8.06779 53.0712 8.57045 53.3182 9.12945C53.5652 9.68845 53.7537 10.2995 53.8837 10.9625C54.018 11.6211 54.0852 12.3188 54.0852 13.0555C54.0852 13.7921 54.018 14.492 53.8837 15.155C53.7537 15.8136 53.5652 16.4225 53.3182 16.9815C53.0712 17.5405 52.7722 18.0453 52.4212 18.496C52.0702 18.9423 51.6758 19.3236 51.2382 19.64C50.8005 19.952 50.3217 20.1925 49.8017 20.3615C49.286 20.5305 48.74 20.615 48.1637 20.615C47.5267 20.615 46.9352 20.5045 46.3892 20.2835C45.8475 20.0668 45.36 19.7548 44.9267 19.3475C44.4977 18.9358 44.1272 18.4353 43.8152 17.846C43.5032 17.2566 43.2605 16.5893 43.0872 15.844V20.225H39.8242V0.984955H43.0872V10.2735ZM43.0872 13.0555C43.0872 13.8008 43.1739 14.466 43.3472 15.051C43.5248 15.636 43.7805 16.1321 44.1142 16.5395C44.4522 16.9425 44.8617 17.2501 45.3427 17.4625C45.828 17.6748 46.3762 17.781 46.9872 17.781C47.6112 17.781 48.1594 17.6791 48.6317 17.4755C49.1083 17.2718 49.507 16.9706 49.8277 16.572C50.1527 16.1733 50.3975 15.6815 50.5622 15.0965C50.7268 14.5071 50.8092 13.8268 50.8092 13.0555C50.8092 12.2841 50.7268 11.606 50.5622 11.021C50.3975 10.4316 50.1527 9.93979 49.8277 9.54545C49.507 9.14679 49.1083 8.84562 48.6317 8.64195C48.1594 8.43829 47.6112 8.33645 46.9872 8.33645C46.3718 8.33645 45.8215 8.44262 45.3362 8.65495C44.8552 8.86729 44.4478 9.17495 44.1142 9.57795C43.7805 9.98095 43.5248 10.475 43.3472 11.06C43.1739 11.645 43.0872 12.3101 43.0872 13.0555Z" fill="white"/>
<path d="M59.4255 20.225H56.1625V0.984955H59.4255V20.225Z" fill="white"/>
<path d="M75.3705 15.4215C75.1798 16.2318 74.8829 16.9576 74.4799 17.599C74.077 18.2403 73.5851 18.7841 73.0044 19.2305C72.4238 19.6768 71.7651 20.0191 71.0285 20.2575C70.2918 20.4958 69.4966 20.615 68.643 20.615C67.9323 20.615 67.2606 20.5326 66.628 20.368C65.9996 20.2033 65.4211 19.9671 64.8924 19.6595C64.3638 19.3475 63.8893 18.9705 63.4689 18.5285C63.0486 18.0821 62.6933 17.5795 62.403 17.0205C62.1126 16.4571 61.8894 15.8418 61.7334 15.1745C61.5774 14.5071 61.4995 13.7965 61.4995 13.0425C61.4995 11.9158 61.6684 10.8888 62.0065 9.96145C62.3488 9.03412 62.8298 8.24112 63.4495 7.58245C64.0691 6.91945 64.8123 6.40812 65.6789 6.04846C66.5456 5.68445 67.5076 5.50245 68.5649 5.50245C69.6049 5.50245 70.5474 5.68012 71.3924 6.03545C72.2418 6.39079 72.9655 6.89562 73.5635 7.54995C74.1615 8.19995 74.623 8.98862 74.948 9.91595C75.2729 10.839 75.4354 11.8703 75.4354 13.01C75.4354 13.179 75.4311 13.348 75.4224 13.517C75.4181 13.686 75.4051 13.8636 75.3835 14.05H64.7234C64.7928 14.648 64.9336 15.1831 65.146 15.6555C65.3626 16.1235 65.6421 16.5221 65.9845 16.8515C66.3268 17.1808 66.7276 17.4321 67.187 17.6055C67.6506 17.7788 68.1641 17.8655 68.7274 17.8655C69.5854 17.8655 70.3026 17.6618 70.879 17.2545C71.4553 16.8471 71.9038 16.2361 72.2244 15.4215H75.3705ZM72.2049 11.71C72.0316 10.5703 71.6373 9.70579 71.0219 9.11645C70.4109 8.52279 69.5963 8.22595 68.5779 8.22595C68.058 8.22595 67.5835 8.30395 67.1544 8.45995C66.7254 8.61595 66.3484 8.84346 66.0235 9.14246C65.7028 9.44145 65.4363 9.80762 65.224 10.241C65.0116 10.67 64.86 11.1596 64.769 11.71H72.2049Z" fill="white"/>
<path d="M80.778 20.225H77.515V5.89245H80.778V9.99395C80.934 9.27895 81.1572 8.64412 81.4475 8.08945C81.7379 7.53045 82.0867 7.06029 82.494 6.67895C82.9057 6.29329 83.3715 6.00079 83.8915 5.80145C84.4159 5.60212 84.9857 5.50245 85.601 5.50245C86.2467 5.50245 86.8274 5.61295 87.343 5.83396C87.863 6.05062 88.3159 6.37129 88.7015 6.79596C89.0872 7.21629 89.4035 7.73629 89.6505 8.35595C89.8975 8.97129 90.0709 9.67762 90.1705 10.475C90.3049 9.69062 90.5129 8.99079 90.7945 8.37545C91.0805 7.76012 91.4337 7.24012 91.854 6.81545C92.2744 6.38645 92.7554 6.06145 93.297 5.84045C93.843 5.61512 94.441 5.50245 95.091 5.50245C95.8364 5.50245 96.4972 5.64979 97.0735 5.94446C97.6542 6.23479 98.1417 6.65945 98.536 7.21845C98.9347 7.77745 99.238 8.46429 99.446 9.27895C99.654 10.0893 99.758 11.0145 99.758 12.0545V20.225H96.495V12.3795C96.495 9.71879 95.5222 8.38845 93.5765 8.38845C93.0565 8.38845 92.5907 8.48162 92.179 8.66795C91.7674 8.85429 91.4207 9.12729 91.139 9.48695C90.8574 9.84229 90.6407 10.28 90.489 10.8C90.3417 11.32 90.268 11.9158 90.268 12.5875V20.225H87.005V12.3795C87.005 9.71879 86.0322 8.38845 84.0865 8.38845C83.5665 8.38845 83.1007 8.48162 82.689 8.66795C82.2774 8.85429 81.9307 9.12729 81.649 9.48695C81.3674 9.84229 81.1507 10.28 80.999 10.8C80.8517 11.32 80.778 11.9158 80.778 12.5875V20.225Z" fill="white"/>
<path d="M125.331 1.63495L118.948 20.225H114.021L107.729 1.63495H111.369L116.53 17.6965L121.769 1.63495H125.331Z" fill="white"/>
<path d="M125.293 11.0145C125.293 10.1695 125.449 9.40679 125.761 8.72645C126.073 8.04612 126.517 7.46762 127.094 6.99095C127.674 6.50995 128.378 6.14162 129.206 5.88595C130.038 5.63029 130.97 5.50245 132.001 5.50245C133.08 5.50245 134.044 5.64329 134.894 5.92495C135.747 6.20662 136.469 6.61396 137.058 7.14695C137.652 7.67995 138.105 8.33212 138.417 9.10345C138.729 9.87479 138.885 10.748 138.885 11.723V20.225H135.622V16.468C135.453 17.1093 135.197 17.6878 134.855 18.2035C134.517 18.7148 134.103 19.1503 133.613 19.51C133.123 19.8653 132.567 20.1383 131.943 20.329C131.323 20.5196 130.649 20.615 129.921 20.615C129.163 20.615 128.472 20.511 127.848 20.303C127.228 20.0993 126.697 19.8111 126.255 19.4385C125.813 19.0658 125.471 18.6173 125.228 18.093C124.99 17.5643 124.871 16.9793 124.871 16.338C124.871 15.6706 125.003 15.0726 125.267 14.544C125.531 14.0153 125.911 13.5668 126.405 13.1985C126.903 12.8301 127.51 12.5485 128.225 12.3535C128.94 12.1541 129.746 12.0545 130.643 12.0545H135.622V11.723C135.622 11.1813 135.537 10.696 135.368 10.267C135.199 9.83362 134.954 9.46529 134.634 9.16195C134.317 8.85862 133.932 8.62679 133.477 8.46645C133.022 8.30612 132.508 8.22595 131.936 8.22595C131.355 8.22595 130.851 8.29312 130.422 8.42745C129.997 8.55746 129.646 8.74379 129.369 8.98645C129.091 9.22912 128.885 9.52162 128.751 9.86395C128.617 10.2063 128.55 10.5898 128.55 11.0145H125.293ZM130.831 14.3425C129.938 14.3425 129.262 14.492 128.803 14.791C128.348 15.09 128.121 15.532 128.121 16.117C128.121 16.7323 128.37 17.2046 128.868 17.534C129.371 17.859 130.094 18.0215 131.039 18.0215C131.706 18.0215 132.32 17.9413 132.879 17.781C133.442 17.6163 133.925 17.3888 134.328 17.0985C134.735 16.8081 135.052 16.4636 135.277 16.065C135.507 15.662 135.622 15.2243 135.622 14.752V14.3425H130.831Z" fill="white"/>
<path d="M151.319 5.89245H154.582V20.225H151.319V16C151.159 16.7323 150.923 17.3845 150.611 17.9565C150.303 18.5285 149.928 19.0116 149.486 19.406C149.048 19.8003 148.548 20.0993 147.985 20.303C147.421 20.511 146.806 20.615 146.139 20.615C145.346 20.615 144.639 20.4698 144.02 20.1795C143.404 19.8848 142.882 19.458 142.453 18.899C142.028 18.34 141.706 17.6553 141.485 16.845C141.264 16.0303 141.153 15.103 141.153 14.063V5.89245H144.416V13.738C144.416 16.3986 145.493 17.729 147.647 17.729C148.227 17.729 148.745 17.6358 149.2 17.4495C149.655 17.2631 150.039 16.9923 150.351 16.637C150.667 16.2773 150.907 15.8375 151.072 15.3175C151.237 14.7931 151.319 14.1973 151.319 13.53V5.89245Z" fill="white"/>
<path d="M160.235 20.225H156.972V0.984955H160.235V20.225Z" fill="white"/>
<path d="M171.669 20.1145C170.512 20.4438 169.483 20.6085 168.582 20.6085C167.078 20.6085 165.934 20.16 165.15 19.263C164.366 18.366 163.973 17.04 163.973 15.285V8.54445H162.101V5.89245H163.973V2.59045H167.236V5.89245H171.669V8.54445H167.236V15.2915C167.236 16.1798 167.401 16.832 167.73 17.248C168.06 17.664 168.582 17.872 169.297 17.872C169.583 17.872 169.919 17.8416 170.304 17.781C170.69 17.716 171.145 17.6141 171.669 17.4755V20.1145Z" fill="white"/>
</svg>
