<svg width="138" height="16" viewBox="0 0 138 16" fill="none" xmlns="http://www.w3.org/2000/svg">
<path d="M10.8064 0.667994V3.08079H3.38079V6.94959H10.1928V9.28959H3.38079V13.1272H11.004V15.54H0.645592V0.667994H10.8064Z" fill="url(#paint0_linear_452_75)"/>
<path d="M15.1778 15.54H12.5674V4.07399H15.1778V7.35519C15.3026 6.78319 15.4811 6.27533 15.7134 5.83159C15.9457 5.38439 16.2247 5.00826 16.5506 4.70319C16.8799 4.39466 17.2526 4.16066 17.6686 4.00119C18.0881 3.84173 18.5439 3.76199 19.0362 3.76199C19.5527 3.76199 20.0173 3.85039 20.4298 4.0272C20.8458 4.20053 21.2081 4.45706 21.5166 4.79679C21.8251 5.13306 22.0782 5.54906 22.2758 6.04479C22.4734 6.53706 22.6121 7.10213 22.6918 7.73999C22.7993 7.11253 22.9657 6.55266 23.191 6.06039C23.4198 5.56813 23.7023 5.15213 24.0386 4.81239C24.3749 4.46919 24.7597 4.20919 25.193 4.03239C25.6298 3.85213 26.1082 3.76199 26.6282 3.76199C27.2245 3.76199 27.7531 3.87986 28.2142 4.1156C28.6787 4.34786 29.0687 4.68759 29.3842 5.13479C29.7031 5.58199 29.9458 6.13146 30.1122 6.78319C30.2786 7.43146 30.3618 8.17159 30.3618 9.00359V15.54H27.7514V9.26359C27.7514 7.13506 26.9731 6.07079 25.4166 6.07079C25.0006 6.07079 24.6279 6.14533 24.2986 6.29439C23.9693 6.44346 23.6919 6.66186 23.4666 6.94959C23.2413 7.23386 23.0679 7.58399 22.9466 7.99999C22.8287 8.41599 22.7698 8.89266 22.7698 9.42999V15.54H20.1594V9.26359C20.1594 7.13506 19.3811 6.07079 17.8246 6.07079C17.4086 6.07079 17.0359 6.14533 16.7066 6.29439C16.3773 6.44346 16.0999 6.66186 15.8746 6.94959C15.6493 7.23386 15.4759 7.58399 15.3546 7.99999C15.2367 8.41599 15.1778 8.89266 15.1778 9.42999V15.54Z" fill="url(#paint1_linear_452_75)"/>
<path d="M34.8297 7.57879C34.9684 6.98253 35.1625 6.44866 35.4121 5.97719C35.6617 5.50573 35.9581 5.10706 36.3013 4.78119C36.648 4.45186 37.038 4.20053 37.4713 4.0272C37.9081 3.85039 38.3813 3.76199 38.8909 3.76199C39.352 3.76199 39.7888 3.82959 40.2013 3.96479C40.6173 4.09999 41.0004 4.29239 41.3505 4.54199C41.7007 4.7916 42.0161 5.09666 42.2969 5.45719C42.5777 5.81426 42.8169 6.21639 43.0145 6.66359C43.2121 7.11079 43.3629 7.59959 43.4669 8.12999C43.5744 8.65693 43.6281 9.21506 43.6281 9.80439C43.6281 10.3937 43.5744 10.9536 43.4669 11.484C43.3629 12.0109 43.2121 12.498 43.0145 12.9452C42.8169 13.3924 42.5777 13.7963 42.2969 14.1568C42.0161 14.5139 41.7007 14.8189 41.3505 15.072C41.0004 15.3216 40.6173 15.514 40.2013 15.6492C39.7888 15.7844 39.352 15.852 38.8909 15.852C38.3813 15.852 37.9081 15.7636 37.4713 15.5868C37.038 15.4135 36.648 15.1639 36.3013 14.838C35.9581 14.5087 35.6617 14.1083 35.4121 13.6368C35.1625 13.1653 34.9684 12.6315 34.8297 12.0352V15.54H32.2193V0.147995H34.8297V7.57879ZM34.8297 9.80439C34.8297 10.4007 34.8991 10.9328 35.0377 11.4008C35.1799 11.8688 35.3844 12.2657 35.6513 12.5916C35.9217 12.914 36.2493 13.1601 36.6341 13.33C37.0224 13.4999 37.4609 13.5848 37.9497 13.5848C38.4489 13.5848 38.8875 13.5033 39.2653 13.3404C39.6467 13.1775 39.9656 12.9365 40.2221 12.6176C40.4821 12.2987 40.678 11.9052 40.8097 11.4372C40.9415 10.9657 41.0073 10.4215 41.0073 9.80439C41.0073 9.18733 40.9415 8.64479 40.8097 8.17679C40.678 7.70533 40.4821 7.31186 40.2221 6.99639C39.9656 6.67746 39.6467 6.43653 39.2653 6.27359C38.8875 6.11066 38.4489 6.02919 37.9497 6.02919C37.4575 6.02919 37.0172 6.11413 36.6289 6.28399C36.2441 6.45386 35.9183 6.69999 35.6513 7.02239C35.3844 7.34479 35.1799 7.73999 35.0377 8.20799C34.8991 8.67599 34.8297 9.20813 34.8297 9.80439Z" fill="url(#paint2_linear_452_75)"/>
<path d="M47.9004 15.54H45.29V0.147995H47.9004V15.54Z" fill="url(#paint3_linear_452_75)"/>
<path d="M60.6564 11.6972C60.5038 12.3455 60.2664 12.9261 59.944 13.4392C59.6216 13.9523 59.2281 14.3873 58.7636 14.7444C58.299 15.1015 57.7721 15.3753 57.1828 15.566C56.5934 15.7567 55.9573 15.852 55.2744 15.852C54.7058 15.852 54.1685 15.7861 53.6624 15.6544C53.1597 15.5227 52.6969 15.3337 52.274 15.0876C51.851 14.838 51.4714 14.5364 51.1352 14.1828C50.7989 13.8257 50.5146 13.4236 50.2824 12.9764C50.0501 12.5257 49.8716 12.0335 49.7468 11.4996C49.622 10.9657 49.5596 10.3972 49.5596 9.79399C49.5596 8.89266 49.6948 8.07106 49.9652 7.32919C50.239 6.58733 50.6238 5.95293 51.1196 5.42599C51.6153 4.89559 52.2098 4.48653 52.9032 4.1988C53.5965 3.90759 54.3661 3.76199 55.212 3.76199C56.044 3.76199 56.798 3.90413 57.474 4.18839C58.1534 4.47266 58.7324 4.87653 59.2108 5.39999C59.6892 5.91999 60.0584 6.55093 60.3184 7.29279C60.5784 8.03119 60.7084 8.85626 60.7084 9.76799C60.7084 9.90319 60.7049 10.0384 60.698 10.1736C60.6945 10.3088 60.6841 10.4509 60.6668 10.6H52.1388C52.1942 11.0784 52.3069 11.5065 52.4768 11.8844C52.6501 12.2588 52.8737 12.5777 53.1476 12.8412C53.4214 13.1047 53.7421 13.3057 54.1096 13.4444C54.4805 13.5831 54.8913 13.6524 55.342 13.6524C56.0284 13.6524 56.6021 13.4895 57.0632 13.1636C57.5242 12.8377 57.883 12.3489 58.1396 11.6972H60.6564ZM58.124 8.72799C57.9853 7.81626 57.6698 7.12466 57.1776 6.65319C56.6888 6.17826 56.037 5.94079 55.2224 5.94079C54.8064 5.94079 54.4268 6.00319 54.0836 6.12799C53.7404 6.25279 53.4388 6.43479 53.1788 6.67399C52.9222 6.91319 52.709 7.20613 52.5392 7.55279C52.3693 7.89599 52.248 8.28773 52.1752 8.72799H58.124Z" fill="url(#paint4_linear_452_75)"/>
<path d="M64.9824 15.54H62.372V4.07399H64.9824V7.35519C65.1072 6.78319 65.2858 6.27533 65.518 5.83159C65.7503 5.38439 66.0294 5.00826 66.3552 4.70319C66.6846 4.39466 67.0572 4.16066 67.4732 4.00119C67.8927 3.84173 68.3486 3.76199 68.8408 3.76199C69.3574 3.76199 69.8219 3.85039 70.2344 4.0272C70.6504 4.20053 71.0127 4.45706 71.3212 4.79679C71.6298 5.13306 71.8828 5.54906 72.0804 6.04479C72.278 6.53706 72.4167 7.10213 72.4964 7.73999C72.6039 7.11253 72.7703 6.55266 72.9956 6.06039C73.2244 5.56813 73.507 5.15213 73.8432 4.81239C74.1795 4.46919 74.5643 4.20919 74.9976 4.03239C75.4344 3.85213 75.9128 3.76199 76.4328 3.76199C77.0291 3.76199 77.5578 3.87986 78.0188 4.1156C78.4834 4.34786 78.8734 4.68759 79.1888 5.13479C79.5078 5.58199 79.7504 6.13146 79.9168 6.78319C80.0832 7.43146 80.1664 8.17159 80.1664 9.00359V15.54H77.556V9.26359C77.556 7.13506 76.7778 6.07079 75.2212 6.07079C74.8052 6.07079 74.4326 6.14533 74.1032 6.29439C73.7739 6.44346 73.4966 6.66186 73.2712 6.94959C73.0459 7.23386 72.8726 7.58399 72.7512 7.99999C72.6334 8.41599 72.5744 8.89266 72.5744 9.42999V15.54H69.964V9.26359C69.964 7.13506 69.1858 6.07079 67.6292 6.07079C67.2132 6.07079 66.8406 6.14533 66.5112 6.29439C66.1819 6.44346 65.9046 6.66186 65.6792 6.94959C65.4539 7.23386 65.2806 7.58399 65.1592 7.99999C65.0414 8.41599 64.9824 8.89266 64.9824 9.42999V15.54Z" fill="url(#paint5_linear_452_75)"/>
<path d="M100.625 0.667994L95.5183 15.54H91.5767L86.5431 0.667994H89.4551L93.5839 13.5172L97.7751 0.667994H100.625Z" fill="url(#paint6_linear_452_75)"/>
<path d="M100.594 8.17159C100.594 7.49559 100.719 6.88546 100.969 6.34119C101.218 5.79693 101.574 5.33413 102.035 4.95279C102.499 4.56799 103.063 4.27333 103.725 4.06879C104.39 3.86426 105.136 3.76199 105.961 3.76199C106.824 3.76199 107.595 3.87466 108.275 4.09999C108.958 4.32533 109.535 4.65119 110.006 5.07759C110.481 5.50399 110.844 6.02573 111.093 6.64279C111.343 7.25986 111.468 7.95839 111.468 8.73839V15.54H108.857V12.5344C108.722 13.0475 108.518 13.5103 108.244 13.9228C107.973 14.3319 107.642 14.6803 107.25 14.968C106.859 15.2523 106.413 15.4707 105.914 15.6232C105.418 15.7757 104.879 15.852 104.297 15.852C103.69 15.852 103.137 15.7688 102.638 15.6024C102.142 15.4395 101.718 15.2089 101.364 14.9108C101.01 14.6127 100.737 14.2539 100.542 13.8344C100.352 13.4115 100.256 12.9435 100.256 12.4304C100.256 11.8965 100.362 11.4181 100.574 10.9952C100.785 10.5723 101.088 10.2135 101.484 9.91879C101.882 9.62413 102.368 9.39879 102.94 9.24279C103.512 9.08333 104.156 9.00359 104.874 9.00359H108.857V8.73839C108.857 8.30506 108.79 7.91679 108.654 7.57359C108.519 7.22693 108.323 6.93226 108.067 6.68959C107.814 6.44693 107.505 6.26146 107.141 6.13319C106.777 6.00493 106.366 5.94079 105.909 5.94079C105.444 5.94079 105.04 5.99453 104.697 6.10199C104.358 6.20599 104.077 6.35506 103.855 6.54919C103.633 6.74333 103.468 6.97733 103.361 7.25119C103.253 7.52506 103.2 7.83186 103.2 8.17159H100.594ZM105.025 10.834C104.311 10.834 103.77 10.9536 103.402 11.1928C103.038 11.432 102.856 11.7856 102.856 12.2536C102.856 12.7459 103.056 13.1237 103.454 13.3872C103.857 13.6472 104.436 13.7772 105.191 13.7772C105.725 13.7772 106.216 13.7131 106.663 13.5848C107.114 13.4531 107.5 13.2711 107.822 13.0388C108.148 12.8065 108.401 12.5309 108.582 12.212C108.765 11.8896 108.857 11.5395 108.857 11.1616V10.834H105.025Z" fill="url(#paint7_linear_452_75)"/>
<path d="M121.415 4.07399H124.026V15.54H121.415V12.16C121.287 12.7459 121.098 13.2676 120.848 13.7252C120.602 14.1828 120.302 14.5693 119.949 14.8848C119.599 15.2003 119.198 15.4395 118.748 15.6024C118.297 15.7688 117.805 15.852 117.271 15.852C116.636 15.852 116.071 15.7359 115.576 15.5036C115.083 15.2679 114.666 14.9264 114.322 14.4792C113.983 14.032 113.724 13.4843 113.548 12.836C113.371 12.1843 113.282 11.4424 113.282 10.6104V4.07399H115.893V10.3504C115.893 12.4789 116.754 13.5432 118.477 13.5432C118.942 13.5432 119.356 13.4687 119.72 13.3196C120.084 13.1705 120.391 12.9539 120.64 12.6696C120.894 12.3819 121.086 12.03 121.218 11.614C121.349 11.1945 121.415 10.7179 121.415 10.184V4.07399Z" fill="url(#paint8_linear_452_75)"/>
<path d="M128.548 15.54H125.938V0.147995H128.548V15.54Z" fill="url(#paint9_linear_452_75)"/>
<path d="M137.695 15.4516C136.77 15.7151 135.947 15.8468 135.225 15.8468C134.023 15.8468 133.107 15.488 132.48 14.7704C131.852 14.0528 131.539 12.992 131.539 11.588V6.19559H130.041V4.07399H131.539V1.43239H134.149V4.07399H137.695V6.19559H134.149V11.5932C134.149 12.3039 134.281 12.8256 134.544 13.1584C134.808 13.4912 135.225 13.6576 135.797 13.6576C136.026 13.6576 136.295 13.6333 136.603 13.5848C136.912 13.5328 137.276 13.4513 137.695 13.3404V15.4516Z" fill="url(#paint10_linear_452_75)"/>
<defs>
<linearGradient id="paint0_linear_452_75" x1="69.1705" y1="15.852" x2="69.1705" y2="0.147995" gradientUnits="userSpaceOnUse">
<stop stop-color="#F4EBDD"/>
<stop offset="1" stop-color="#B0ABA2"/>
</linearGradient>
<linearGradient id="paint1_linear_452_75" x1="69.1705" y1="15.852" x2="69.1705" y2="0.147995" gradientUnits="userSpaceOnUse">
<stop stop-color="#F4EBDD"/>
<stop offset="1" stop-color="#B0ABA2"/>
</linearGradient>
<linearGradient id="paint2_linear_452_75" x1="69.1705" y1="15.852" x2="69.1705" y2="0.147995" gradientUnits="userSpaceOnUse">
<stop stop-color="#F4EBDD"/>
<stop offset="1" stop-color="#B0ABA2"/>
</linearGradient>
<linearGradient id="paint3_linear_452_75" x1="69.1705" y1="15.852" x2="69.1705" y2="0.147995" gradientUnits="userSpaceOnUse">
<stop stop-color="#F4EBDD"/>
<stop offset="1" stop-color="#B0ABA2"/>
</linearGradient>
<linearGradient id="paint4_linear_452_75" x1="69.1705" y1="15.852" x2="69.1705" y2="0.147995" gradientUnits="userSpaceOnUse">
<stop stop-color="#F4EBDD"/>
<stop offset="1" stop-color="#B0ABA2"/>
</linearGradient>
<linearGradient id="paint5_linear_452_75" x1="69.1705" y1="15.852" x2="69.1705" y2="0.147995" gradientUnits="userSpaceOnUse">
<stop stop-color="#F4EBDD"/>
<stop offset="1" stop-color="#B0ABA2"/>
</linearGradient>
<linearGradient id="paint6_linear_452_75" x1="69.1705" y1="15.852" x2="69.1705" y2="0.147995" gradientUnits="userSpaceOnUse">
<stop stop-color="#F4EBDD"/>
<stop offset="1" stop-color="#B0ABA2"/>
</linearGradient>
<linearGradient id="paint7_linear_452_75" x1="69.1705" y1="15.852" x2="69.1705" y2="0.147995" gradientUnits="userSpaceOnUse">
<stop stop-color="#F4EBDD"/>
<stop offset="1" stop-color="#B0ABA2"/>
</linearGradient>
<linearGradient id="paint8_linear_452_75" x1="69.1705" y1="15.852" x2="69.1705" y2="0.147995" gradientUnits="userSpaceOnUse">
<stop stop-color="#F4EBDD"/>
<stop offset="1" stop-color="#B0ABA2"/>
</linearGradient>
<linearGradient id="paint9_linear_452_75" x1="69.1705" y1="15.852" x2="69.1705" y2="0.147995" gradientUnits="userSpaceOnUse">
<stop stop-color="#F4EBDD"/>
<stop offset="1" stop-color="#B0ABA2"/>
</linearGradient>
<linearGradient id="paint10_linear_452_75" x1="69.1705" y1="15.852" x2="69.1705" y2="0.147995" gradientUnits="userSpaceOnUse">
<stop stop-color="#F4EBDD"/>
<stop offset="1" stop-color="#B0ABA2"/>
</linearGradient>
</defs>
</svg>
