<svg width="103" height="12" viewBox="0 0 103 12" fill="none" xmlns="http://www.w3.org/2000/svg">
<path d="M7.6206 0.389999V2.1996H2.0514V5.1012H7.1604V6.8562H2.0514V9.7344H7.7688V11.544H0V0.389999H7.6206Z" fill="url(#paint0_linear_715_7428)"/>
<path d="M10.8992 11.544H8.94136V2.9445H10.8992V5.4054C10.9928 4.9764 11.1267 4.5955 11.3009 4.2627C11.4751 3.9273 11.6844 3.6452 11.9288 3.4164C12.1758 3.185 12.4553 3.0095 12.7673 2.8899C13.0819 2.7703 13.4238 2.7105 13.793 2.7105C14.1804 2.7105 14.5288 2.7768 14.8382 2.9094C15.1502 3.0394 15.4219 3.2318 15.6533 3.4866C15.8847 3.7388 16.0745 4.0508 16.2227 4.4226C16.3709 4.7918 16.4749 5.2156 16.5347 5.694C16.6153 5.2234 16.7401 4.8035 16.9091 4.4343C17.0807 4.0651 17.2926 3.7531 17.5448 3.4983C17.797 3.2409 18.0856 3.0459 18.4106 2.9133C18.7382 2.7781 19.097 2.7105 19.487 2.7105C19.9342 2.7105 20.3307 2.7989 20.6765 2.9757C21.0249 3.1499 21.3174 3.4047 21.554 3.7401C21.7932 4.0755 21.9752 4.4876 22.1 4.9764C22.2248 5.4626 22.2872 6.0177 22.2872 6.6417V11.544H20.3294V6.8367C20.3294 5.2403 19.7457 4.4421 18.5783 4.4421C18.2663 4.4421 17.9868 4.498 17.7398 4.6098C17.4928 4.7216 17.2848 4.8854 17.1158 5.1012C16.9468 5.3144 16.8168 5.577 16.7258 5.889C16.6374 6.201 16.5932 6.5585 16.5932 6.9615V11.544H14.6354V6.8367C14.6354 5.2403 14.0517 4.4421 12.8843 4.4421C12.5723 4.4421 12.2928 4.498 12.0458 4.6098C11.7988 4.7216 11.5908 4.8854 11.4218 5.1012C11.2528 5.3144 11.1228 5.577 11.0318 5.889C10.9434 6.201 10.8992 6.5585 10.8992 6.9615V11.544Z" fill="url(#paint1_linear_715_7428)"/>
<path d="M25.6381 5.5731C25.7421 5.1259 25.8877 4.7255 26.0749 4.3719C26.2621 4.0183 26.4844 3.7193 26.7418 3.4749C27.0018 3.2279 27.2943 3.0394 27.6193 2.9094C27.9469 2.7768 28.3018 2.7105 28.684 2.7105C29.0298 2.7105 29.3574 2.7612 29.6668 2.8626C29.9788 2.964 30.2661 3.1083 30.5287 3.2955C30.7913 3.4827 31.0279 3.7115 31.2385 3.9819C31.4491 4.2497 31.6285 4.5513 31.7767 4.8867C31.9249 5.2221 32.038 5.5887 32.116 5.9865C32.1966 6.3817 32.2369 6.8003 32.2369 7.2423C32.2369 7.6843 32.1966 8.1042 32.116 8.502C32.038 8.8972 31.9249 9.2625 31.7767 9.5979C31.6285 9.9333 31.4491 10.2362 31.2385 10.5066C31.0279 10.7744 30.7913 11.0032 30.5287 11.193C30.2661 11.3802 29.9788 11.5245 29.6668 11.6259C29.3574 11.7273 29.0298 11.778 28.684 11.778C28.3018 11.778 27.9469 11.7117 27.6193 11.5791C27.2943 11.4491 27.0018 11.2619 26.7418 11.0175C26.4844 10.7705 26.2621 10.4702 26.0749 10.1166C25.8877 9.763 25.7421 9.3626 25.6381 8.9154V11.544H23.6803V0H25.6381V5.5731ZM25.6381 7.2423C25.6381 7.6895 25.6901 8.0886 25.7941 8.4396C25.9007 8.7906 26.0541 9.0883 26.2543 9.3327C26.4571 9.5745 26.7028 9.7591 26.9914 9.8865C27.2826 10.0139 27.6115 10.0776 27.9781 10.0776C28.3525 10.0776 28.6814 10.0165 28.9648 9.8943C29.2508 9.7721 29.49 9.5914 29.6824 9.3522C29.8774 9.113 30.0243 8.8179 30.1231 8.4669C30.2219 8.1133 30.2713 7.7051 30.2713 7.2423C30.2713 6.7795 30.2219 6.3726 30.1231 6.0216C30.0243 5.668 29.8774 5.3729 29.6824 5.1363C29.49 4.8971 29.2508 4.7164 28.9648 4.5942C28.6814 4.472 28.3525 4.4109 27.9781 4.4109C27.6089 4.4109 27.2787 4.4746 26.9875 4.602C26.6989 4.7294 26.4545 4.914 26.2543 5.1558C26.0541 5.3976 25.9007 5.694 25.7941 6.045C25.6901 6.396 25.6381 6.7951 25.6381 7.2423Z" fill="url(#paint2_linear_715_7428)"/>
<path d="M35.4411 11.544H33.4833V0H35.4411V11.544Z" fill="url(#paint3_linear_715_7428)"/>
<path d="M45.0081 8.6619C44.8937 9.1481 44.7156 9.5836 44.4738 9.9684C44.232 10.3532 43.9369 10.6795 43.5885 10.9473C43.2401 11.2151 42.8449 11.4205 42.4029 11.5635C41.9609 11.7065 41.4838 11.778 40.9716 11.778C40.5452 11.778 40.1422 11.7286 39.7626 11.6298C39.3856 11.531 39.0385 11.3893 38.7213 11.2047C38.4041 11.0175 38.1194 10.7913 37.8672 10.5261C37.615 10.2583 37.4018 9.9567 37.2276 9.6213C37.0534 9.2833 36.9195 8.9141 36.8259 8.5137C36.7323 8.1133 36.6855 7.6869 36.6855 7.2345C36.6855 6.5585 36.7869 5.9423 36.9897 5.3859C37.1951 4.8295 37.4837 4.3537 37.8555 3.9585C38.2273 3.5607 38.6732 3.2539 39.1932 3.0381C39.7132 2.8197 40.2904 2.7105 40.9248 2.7105C41.5488 2.7105 42.1143 2.8171 42.6213 3.0303C43.1309 3.2435 43.5651 3.5464 43.9239 3.939C44.2827 4.329 44.5596 4.8022 44.7546 5.3586C44.9496 5.9124 45.0471 6.5312 45.0471 7.215C45.0471 7.3164 45.0445 7.4178 45.0393 7.5192C45.0367 7.6206 45.0289 7.7272 45.0159 7.839H38.6199C38.6615 8.1978 38.746 8.5189 38.8734 8.8023C39.0034 9.0831 39.1711 9.3223 39.3765 9.5199C39.5819 9.7175 39.8224 9.8683 40.098 9.9723C40.3762 10.0763 40.6843 10.1283 41.0223 10.1283C41.5371 10.1283 41.9674 10.0061 42.3132 9.7617C42.659 9.5173 42.9281 9.1507 43.1205 8.6619H45.0081ZM43.1088 6.435C43.0048 5.7512 42.7682 5.2325 42.399 4.8789C42.0324 4.5227 41.5436 4.3446 40.9326 4.3446C40.6206 4.3446 40.3359 4.3914 40.0785 4.485C39.8211 4.5786 39.5949 4.7151 39.3999 4.8945C39.2075 5.0739 39.0476 5.2936 38.9202 5.5536C38.7928 5.811 38.7018 6.1048 38.6472 6.435H43.1088Z" fill="url(#paint4_linear_715_7428)"/>
<path d="M48.2526 11.544H46.2948V2.9445H48.2526V5.4054C48.3462 4.9764 48.4801 4.5955 48.6543 4.2627C48.8285 3.9273 49.0378 3.6452 49.2822 3.4164C49.5292 3.185 49.8087 3.0095 50.1207 2.8899C50.4353 2.7703 50.7772 2.7105 51.1464 2.7105C51.5338 2.7105 51.8822 2.7768 52.1916 2.9094C52.5036 3.0394 52.7753 3.2318 53.0067 3.4866C53.2381 3.7388 53.4279 4.0508 53.5761 4.4226C53.7243 4.7918 53.8283 5.2156 53.8881 5.694C53.9687 5.2234 54.0935 4.8035 54.2625 4.4343C54.4341 4.0651 54.646 3.7531 54.8982 3.4983C55.1504 3.2409 55.439 3.0459 55.764 2.9133C56.0916 2.7781 56.4504 2.7105 56.8404 2.7105C57.2876 2.7105 57.6841 2.7989 58.0299 2.9757C58.3783 3.1499 58.6708 3.4047 58.9074 3.7401C59.1466 4.0755 59.3286 4.4876 59.4534 4.9764C59.5782 5.4626 59.6406 6.0177 59.6406 6.6417V11.544H57.6828V6.8367C57.6828 5.2403 57.0991 4.4421 55.9317 4.4421C55.6197 4.4421 55.3402 4.498 55.0932 4.6098C54.8462 4.7216 54.6382 4.8854 54.4692 5.1012C54.3002 5.3144 54.1702 5.577 54.0792 5.889C53.9908 6.201 53.9466 6.5585 53.9466 6.9615V11.544H51.9888V6.8367C51.9888 5.2403 51.4051 4.4421 50.2377 4.4421C49.9257 4.4421 49.6462 4.498 49.3992 4.6098C49.1522 4.7216 48.9442 4.8854 48.7752 5.1012C48.6062 5.3144 48.4762 5.577 48.3852 5.889C48.2968 6.201 48.2526 6.5585 48.2526 6.9615V11.544Z" fill="url(#paint5_linear_715_7428)"/>
<path d="M74.9843 0.389999L71.1545 11.544H68.1983L64.4231 0.389999H66.6071L69.7037 10.0269L72.8471 0.389999H74.9843Z" fill="url(#paint6_linear_715_7428)"/>
<path d="M74.9616 6.0177C74.9616 5.5107 75.0552 5.0531 75.2424 4.6449C75.4296 4.2367 75.6961 3.8896 76.0419 3.6036C76.3903 3.315 76.8128 3.094 77.3094 2.9406C77.8086 2.7872 78.3676 2.7105 78.9864 2.7105C79.6338 2.7105 80.2123 2.795 80.7219 2.964C81.2341 3.133 81.667 3.3774 82.0206 3.6972C82.3768 4.017 82.6485 4.4083 82.8357 4.8711C83.0229 5.3339 83.1165 5.8578 83.1165 6.4428V11.544H81.1587V9.2898C81.0573 9.6746 80.9039 10.0217 80.6985 10.3311C80.4957 10.6379 80.2474 10.8992 79.9536 11.115C79.6598 11.3282 79.3257 11.492 78.9513 11.6064C78.5795 11.7208 78.1752 11.778 77.7384 11.778C77.2834 11.778 76.8687 11.7156 76.4943 11.5908C76.1225 11.4686 75.804 11.2957 75.5388 11.0721C75.2736 10.8485 75.0682 10.5794 74.9226 10.2648C74.7796 9.9476 74.7081 9.5966 74.7081 9.2118C74.7081 8.8114 74.7874 8.4526 74.946 8.1354C75.1046 7.8182 75.3321 7.5491 75.6285 7.3281C75.9275 7.1071 76.2915 6.9381 76.7205 6.8211C77.1495 6.7015 77.6331 6.6417 78.1713 6.6417H81.1587V6.4428C81.1587 6.1178 81.108 5.8266 81.0066 5.5692C80.9052 5.3092 80.7583 5.0882 80.5659 4.9062C80.3761 4.7242 80.1447 4.5851 79.8717 4.4889C79.5987 4.3927 79.2906 4.3446 78.9474 4.3446C78.599 4.3446 78.2961 4.3849 78.0387 4.4655C77.7839 4.5435 77.5733 4.6553 77.4069 4.8009C77.2405 4.9465 77.117 5.122 77.0364 5.3274C76.9558 5.5328 76.9155 5.7629 76.9155 6.0177H74.9616ZM78.2844 8.0145C77.7488 8.0145 77.3432 8.1042 77.0676 8.2836C76.7946 8.463 76.6581 8.7282 76.6581 9.0792C76.6581 9.4484 76.8076 9.7318 77.1066 9.9294C77.4082 10.1244 77.8424 10.2219 78.4092 10.2219C78.8096 10.2219 79.1775 10.1738 79.5129 10.0776C79.8509 9.9788 80.1408 9.8423 80.3826 9.6681C80.627 9.4939 80.8168 9.2872 80.952 9.048C81.0898 8.8062 81.1587 8.5436 81.1587 8.2602V8.0145H78.2844Z" fill="url(#paint7_linear_715_7428)"/>
<path d="M90.5772 2.9445H92.535V11.544H90.5772V9.009C90.481 9.4484 90.3393 9.8397 90.1521 10.1829C89.9675 10.5261 89.7426 10.816 89.4774 11.0526C89.2148 11.2892 88.9145 11.4686 88.5765 11.5908C88.2385 11.7156 87.8693 11.778 87.4689 11.778C86.9931 11.778 86.5693 11.6909 86.1975 11.5167C85.8283 11.3399 85.515 11.0838 85.2576 10.7484C85.0028 10.413 84.8091 10.0022 84.6765 9.516C84.5439 9.0272 84.4776 8.4708 84.4776 7.8468V2.9445H86.4354V7.6518C86.4354 9.2482 87.0815 10.0464 88.3737 10.0464C88.7221 10.0464 89.0328 9.9905 89.3058 9.8787C89.5788 9.7669 89.8089 9.6044 89.9961 9.3912C90.1859 9.1754 90.3302 8.9115 90.429 8.5995C90.5278 8.2849 90.5772 7.9274 90.5772 7.527V2.9445Z" fill="url(#paint8_linear_715_7428)"/>
<path d="M95.927 11.544H93.9692V0H95.927V11.544Z" fill="url(#paint9_linear_715_7428)"/>
<path d="M102.787 11.4777C102.093 11.6753 101.476 11.7741 100.935 11.7741C100.033 11.7741 99.3463 11.505 98.8757 10.9668C98.4051 10.4286 98.1698 9.633 98.1698 8.58V4.5357H97.0466V2.9445H98.1698V0.963299H100.128V2.9445H102.787V4.5357H100.128V8.5839C100.128 9.1169 100.226 9.5082 100.424 9.7578C100.622 10.0074 100.935 10.1322 101.364 10.1322C101.535 10.1322 101.737 10.114 101.968 10.0776C102.2 10.0386 102.473 9.9775 102.787 9.8943V11.4777Z" fill="url(#paint10_linear_715_7428)"/>
<defs>
<linearGradient id="paint0_linear_715_7428" x1="51.3937" y1="11.778" x2="51.3937" y2="3.80497e-07" gradientUnits="userSpaceOnUse">
<stop stop-color="#2F2F32"/>
<stop offset="1" stop-color="#161617"/>
</linearGradient>
<linearGradient id="paint1_linear_715_7428" x1="51.3937" y1="11.778" x2="51.3937" y2="3.80497e-07" gradientUnits="userSpaceOnUse">
<stop stop-color="#2F2F32"/>
<stop offset="1" stop-color="#161617"/>
</linearGradient>
<linearGradient id="paint2_linear_715_7428" x1="51.3937" y1="11.778" x2="51.3937" y2="3.80497e-07" gradientUnits="userSpaceOnUse">
<stop stop-color="#2F2F32"/>
<stop offset="1" stop-color="#161617"/>
</linearGradient>
<linearGradient id="paint3_linear_715_7428" x1="51.3937" y1="11.778" x2="51.3937" y2="3.80497e-07" gradientUnits="userSpaceOnUse">
<stop stop-color="#2F2F32"/>
<stop offset="1" stop-color="#161617"/>
</linearGradient>
<linearGradient id="paint4_linear_715_7428" x1="51.3937" y1="11.778" x2="51.3937" y2="3.80497e-07" gradientUnits="userSpaceOnUse">
<stop stop-color="#2F2F32"/>
<stop offset="1" stop-color="#161617"/>
</linearGradient>
<linearGradient id="paint5_linear_715_7428" x1="51.3937" y1="11.778" x2="51.3937" y2="3.80497e-07" gradientUnits="userSpaceOnUse">
<stop stop-color="#2F2F32"/>
<stop offset="1" stop-color="#161617"/>
</linearGradient>
<linearGradient id="paint6_linear_715_7428" x1="51.3937" y1="11.778" x2="51.3937" y2="3.80497e-07" gradientUnits="userSpaceOnUse">
<stop stop-color="#2F2F32"/>
<stop offset="1" stop-color="#161617"/>
</linearGradient>
<linearGradient id="paint7_linear_715_7428" x1="51.3937" y1="11.778" x2="51.3937" y2="3.80497e-07" gradientUnits="userSpaceOnUse">
<stop stop-color="#2F2F32"/>
<stop offset="1" stop-color="#161617"/>
</linearGradient>
<linearGradient id="paint8_linear_715_7428" x1="51.3937" y1="11.778" x2="51.3937" y2="3.80497e-07" gradientUnits="userSpaceOnUse">
<stop stop-color="#2F2F32"/>
<stop offset="1" stop-color="#161617"/>
</linearGradient>
<linearGradient id="paint9_linear_715_7428" x1="51.3937" y1="11.778" x2="51.3937" y2="3.80497e-07" gradientUnits="userSpaceOnUse">
<stop stop-color="#2F2F32"/>
<stop offset="1" stop-color="#161617"/>
</linearGradient>
<linearGradient id="paint10_linear_715_7428" x1="51.3937" y1="11.778" x2="51.3937" y2="3.80497e-07" gradientUnits="userSpaceOnUse">
<stop stop-color="#2F2F32"/>
<stop offset="1" stop-color="#161617"/>
</linearGradient>
</defs>
</svg>
