<svg width="8" height="14" viewBox="0 0 8 14" fill="none" xmlns="http://www.w3.org/2000/svg">
<path d="M4.04814 0.632576L3.96245 0.923679L3.96276 9.36998L4.04847 9.45548L7.96898 7.13783L4.04814 0.632576Z" fill="white"/>
<path d="M4.04814 0.632576L0.127682 7.13812L4.04847 9.45548L4.04832 5.35588L4.04814 0.632576Z" fill="white"/>
<path d="M4.0485 10.1978L4.0002 10.2567L4.00031 13.2654L4.04861 13.4064L7.97141 7.88133L4.0485 10.1978Z" fill="white"/>
<path d="M4.04861 13.4064L4.0485 10.1978L0.12771 7.88162L4.04861 13.4064Z" fill="white"/>
<path d="M4.04847 9.45548L7.96898 7.13783L4.04832 5.35588L4.04847 9.45548Z" fill="white"/>
<path d="M0.127682 7.13812L4.04847 9.45548L4.04832 5.35588L0.127682 7.13812Z" fill="white"/>
<path d="M4.04814 0.632576L3.96245 0.923679L3.96276 9.36998L4.04847 9.45548L7.96898 7.13783L4.04814 0.632576Z" fill="white"/>
<path d="M4.04814 0.632576L0.127682 7.13812L4.04847 9.45548L4.04832 5.35588L4.04814 0.632576Z" fill="white"/>
<path d="M4.0485 10.1978L4.0002 10.2567L4.00031 13.2654L4.04861 13.4064L7.97141 7.88133L4.0485 10.1978Z" fill="white"/>
<path d="M4.04861 13.4064L4.0485 10.1978L0.12771 7.88162L4.04861 13.4064Z" fill="white"/>
<path d="M4.04847 9.45548L7.96898 7.13783L4.04832 5.35588L4.04847 9.45548Z" fill="white"/>
<path d="M0.127682 7.13812L4.04847 9.45548L4.04832 5.35588L0.127682 7.13812Z" fill="white"/>
</svg>
