<svg width="60" height="60" viewBox="0 0 60 60" fill="none" xmlns="http://www.w3.org/2000/svg">
<path d="M0 30C0 5.295 5.27104 0 29.8643 0C54.4575 0 59.7285 5.295 59.7285 30C59.7285 54.705 54.4575 60 29.8643 60C5.27104 60 0 54.705 0 30Z" fill="url(#paint0_linear_735_4097)"/>
<g filter="url(#filter0_d_735_4097)">
<path d="M43.0455 27.75L32.0955 16.8375L29.8455 19.0875L27.5955 16.8375L16.683 27.75L18.933 30L16.683 32.25L27.5955 43.1625L29.8455 40.9125L32.0955 43.1625L43.008 32.25L40.758 30L43.0455 27.75ZM40.908 32.25L37.0455 36.15L34.533 33.6375L33.483 34.6875L35.9955 37.2L32.0955 41.0625L30.933 39.8625L33.4455 37.35L32.3955 36.3L29.883 38.8125L27.3705 36.3L26.3205 37.35L28.833 39.8625L27.633 41.0625L23.733 37.2L26.2455 34.6875L25.1955 33.6375L22.683 36.15L18.8205 32.25L19.983 31.0875L22.4955 33.6L23.5455 32.55L21.033 30.0375L23.5455 27.525L22.4955 26.475L19.983 28.9875L18.783 27.7875L22.683 23.8875L25.1955 26.4L26.2455 25.35L23.733 22.8375L27.5955 18.975L28.7955 20.175L26.283 22.6875L27.333 23.7375L29.8455 21.225L32.358 23.7375L33.408 22.6875L30.933 20.1375L32.133 18.9375L35.9955 22.8375L33.483 25.35L34.533 26.4L37.0455 23.8875L40.908 27.75L39.708 28.95L37.1955 26.4375L36.1455 27.4875L38.658 30L36.1455 32.5125L37.1955 33.5625L39.708 31.05L40.908 32.25ZM24.2955 30L29.8455 35.55L35.3955 30L29.8455 24.45L24.2955 30ZM29.8455 33.45L26.433 30L29.8455 26.5875L33.258 30L29.8455 33.45Z" fill="url(#paint1_linear_735_4097)"/>
</g>
<defs>
<filter id="filter0_d_735_4097" x="15.183" y="16.8375" width="29.3625" height="29.325" filterUnits="userSpaceOnUse" color-interpolation-filters="sRGB">
<feFlood flood-opacity="0" result="BackgroundImageFix"/>
<feColorMatrix in="SourceAlpha" type="matrix" values="0 0 0 0 0 0 0 0 0 0 0 0 0 0 0 0 0 0 127 0" result="hardAlpha"/>
<feOffset dy="1.5"/>
<feGaussianBlur stdDeviation="0.75"/>
<feComposite in2="hardAlpha" operator="out"/>
<feColorMatrix type="matrix" values="0 0 0 0 0 0 0 0 0 0 0 0 0 0 0 0 0 0 0.25 0"/>
<feBlend mode="normal" in2="BackgroundImageFix" result="effect1_dropShadow_735_4097"/>
<feBlend mode="normal" in="SourceGraphic" in2="effect1_dropShadow_735_4097" result="shape"/>
</filter>
<linearGradient id="paint0_linear_735_4097" x1="29.8643" y1="60" x2="29.8642" y2="-1.52252e-06" gradientUnits="userSpaceOnUse">
<stop stop-color="#DECAAB"/>
<stop offset="1" stop-color="#FBEFDC"/>
</linearGradient>
<linearGradient id="paint1_linear_735_4097" x1="29.8642" y1="43.1625" x2="29.8642" y2="16.8375" gradientUnits="userSpaceOnUse">
<stop stop-color="#2F2F32"/>
<stop offset="1" stop-color="#161617"/>
</linearGradient>
</defs>
</svg>
