<svg width="160" height="160" viewBox="0 0 160 160" fill="none" xmlns="http://www.w3.org/2000/svg">
<path d="M0 80C0 14.12 14.12 0 80 0C145.88 0 160 14.12 160 80C160 145.88 145.88 160 80 160C14.12 160 0 145.88 0 80Z" fill="url(#paint0_linear_737_30222)"/>
<g filter="url(#filter0_d_737_30222)">
<path d="M114.788 74L85.588 44.9L79.588 50.9L73.588 44.9L44.488 74L50.488 80L44.488 86L73.588 115.1L79.588 109.1L85.588 115.1L114.688 86L108.688 80L114.788 74ZM109.088 86L98.788 96.4L92.088 89.7L89.288 92.5L95.988 99.2L85.588 109.5L82.488 106.3L89.188 99.6L86.388 96.8L79.688 103.5L72.988 96.8L70.188 99.6L76.888 106.3L73.688 109.5L63.288 99.2L69.988 92.5L67.188 89.7L60.488 96.4L50.188 86L53.288 82.9L59.988 89.6L62.788 86.8L56.088 80.1L62.788 73.4L59.988 70.6L53.288 77.3L50.088 74.1L60.488 63.7L67.188 70.4L69.988 67.6L63.288 60.9L73.588 50.6L76.788 53.8L70.088 60.5L72.888 63.3L79.588 56.6L86.288 63.3L89.088 60.5L82.488 53.7L85.688 50.5L95.988 60.9L89.288 67.6L92.088 70.4L98.788 63.7L109.088 74L105.888 77.2L99.188 70.5L96.388 73.3L103.088 80L96.388 86.7L99.188 89.5L105.888 82.8L109.088 86ZM64.788 80L79.588 94.8L94.388 80L79.588 65.2L64.788 80ZM79.588 89.2L70.488 80L79.588 70.9L88.688 80L79.588 89.2Z" fill="url(#paint1_linear_737_30222)"/>
</g>
<defs>
<filter id="filter0_d_737_30222" x="40.488" y="44.9" width="78.3" height="78.2" filterUnits="userSpaceOnUse" color-interpolation-filters="sRGB">
<feFlood flood-opacity="0" result="BackgroundImageFix"/>
<feColorMatrix in="SourceAlpha" type="matrix" values="0 0 0 0 0 0 0 0 0 0 0 0 0 0 0 0 0 0 127 0" result="hardAlpha"/>
<feOffset dy="4"/>
<feGaussianBlur stdDeviation="2"/>
<feComposite in2="hardAlpha" operator="out"/>
<feColorMatrix type="matrix" values="0 0 0 0 0.3125 0 0 0 0 0.307993 0 0 0 0 0.300781 0 0 0 0.5 0"/>
<feBlend mode="normal" in2="BackgroundImageFix" result="effect1_dropShadow_737_30222"/>
<feBlend mode="normal" in="SourceGraphic" in2="effect1_dropShadow_737_30222" result="shape"/>
</filter>
<linearGradient id="paint0_linear_737_30222" x1="80" y1="160" x2="80" y2="0" gradientUnits="userSpaceOnUse">
<stop stop-color="#2E2E50"/>
<stop offset="1" stop-color="#101323"/>
</linearGradient>
<linearGradient id="paint1_linear_737_30222" x1="79.638" y1="115.1" x2="79.638" y2="44.9" gradientUnits="userSpaceOnUse">
<stop stop-color="#DECAAB"/>
<stop offset="1" stop-color="#FBEFDC"/>
</linearGradient>
</defs>
</svg>
