<svg width="135" height="24" viewBox="0 0 135 24" fill="none" xmlns="http://www.w3.org/2000/svg">
<path d="M24.0342 9.94871L14.0513 0L12 2.05128L9.94871 0L0 9.94871L2.05128 12L0 14.0513L9.94871 24L12 21.9487L14.0513 24L24 14.0513L21.9487 12L24.0342 9.94871ZM22.0855 14.0513L18.5641 17.6068L16.2735 15.3162L15.3162 16.2735L17.6068 18.5641L14.0513 22.0855L12.9914 20.9914L15.282 18.7008L14.3248 17.7436L12.0342 20.0342L9.74359 17.7436L8.78632 18.7008L11.0769 20.9914L9.9829 22.0855L6.42735 18.5641L8.71795 16.2735L7.76068 15.3162L5.47008 17.6068L1.94872 14.0513L3.00855 12.9914L5.29914 15.282L6.25641 14.3248L3.96581 12.0342L6.25641 9.74359L5.29914 8.78632L3.00855 11.0769L1.91453 9.9829L5.47008 6.42735L7.76068 8.71795L8.71795 7.76068L6.42735 5.47008L9.94871 1.94872L11.0427 3.04273L8.75213 5.33333L9.7094 6.2906L12 4L14.2906 6.2906L15.2479 5.33333L12.9914 3.00855L14.0855 1.91453L17.6068 5.47008L15.3162 7.76068L16.2735 8.71795L18.5641 6.42735L22.0855 9.94871L20.9914 11.0427L18.7008 8.75213L17.7436 9.7094L20.0342 12L17.7436 14.2906L18.7008 15.2479L20.9914 12.9573L22.0855 14.0513ZM6.94017 12L12 17.0598L17.0598 12L12 6.94017L6.94017 12ZM12 15.1453L8.88889 12L12 8.88889L15.1111 12L12 15.1453Z" fill="url(#paint0_linear_748_651)"/>
<path d="M38.8548 6.50084V8.31044H33.2856V11.212H38.3946V12.967H33.2856V15.8452H39.003V17.6548H31.2342V6.50084H38.8548Z" fill="white"/>
<path d="M42.1333 17.6548H40.1755V9.05534H42.1333V11.5162C42.2269 11.0872 42.3608 10.7063 42.535 10.3735C42.7092 10.0381 42.9185 9.75604 43.1629 9.52724C43.4099 9.29584 43.6894 9.12034 44.0014 9.00074C44.316 8.88114 44.6579 8.82134 45.0271 8.82134C45.4145 8.82134 45.7629 8.88764 46.0723 9.02024C46.3843 9.15024 46.656 9.34264 46.8874 9.59744C47.1188 9.84964 47.3086 10.1616 47.4568 10.5334C47.605 10.9026 47.709 11.3264 47.7688 11.8048C47.8494 11.3342 47.9742 10.9143 48.1432 10.5451C48.3148 10.1759 48.5267 9.86394 48.7789 9.60914C49.0311 9.35174 49.3197 9.15674 49.6447 9.02414C49.9723 8.88894 50.3311 8.82134 50.7211 8.82134C51.1683 8.82134 51.5648 8.90974 51.9106 9.08654C52.259 9.26074 52.5515 9.51554 52.7881 9.85094C53.0273 10.1863 53.2093 10.5984 53.3341 11.0872C53.4589 11.5734 53.5213 12.1285 53.5213 12.7525V17.6548H51.5635V12.9475C51.5635 11.3511 50.9798 10.5529 49.8124 10.5529C49.5004 10.5529 49.2209 10.6088 48.9739 10.7206C48.7269 10.8324 48.5189 10.9962 48.3499 11.212C48.1809 11.4252 48.0509 11.6878 47.9599 11.9998C47.8715 12.3118 47.8273 12.6693 47.8273 13.0723V17.6548H45.8695V12.9475C45.8695 11.3511 45.2858 10.5529 44.1184 10.5529C43.8064 10.5529 43.5269 10.6088 43.2799 10.7206C43.0329 10.8324 42.8249 10.9962 42.6559 11.212C42.4869 11.4252 42.3569 11.6878 42.2659 11.9998C42.1775 12.3118 42.1333 12.6693 42.1333 13.0723V17.6548Z" fill="white"/>
<path d="M56.8723 11.6839C56.9763 11.2367 57.1219 10.8363 57.3091 10.4827C57.4963 10.1291 57.7186 9.83014 57.976 9.58574C58.236 9.33874 58.5285 9.15024 58.8535 9.02024C59.1811 8.88764 59.536 8.82134 59.9182 8.82134C60.264 8.82134 60.5916 8.87204 60.901 8.97344C61.213 9.07484 61.5003 9.21914 61.7629 9.40634C62.0255 9.59354 62.2621 9.82234 62.4727 10.0927C62.6833 10.3605 62.8627 10.6621 63.0109 10.9975C63.1591 11.3329 63.2722 11.6995 63.3502 12.0973C63.4308 12.4925 63.4711 12.9111 63.4711 13.3531C63.4711 13.7951 63.4308 14.215 63.3502 14.6128C63.2722 15.008 63.1591 15.3733 63.0109 15.7087C62.8627 16.0441 62.6833 16.347 62.4727 16.6174C62.2621 16.8852 62.0255 17.114 61.7629 17.3038C61.5003 17.491 61.213 17.6353 60.901 17.7367C60.5916 17.8381 60.264 17.8888 59.9182 17.8888C59.536 17.8888 59.1811 17.8225 58.8535 17.6899C58.5285 17.5599 58.236 17.3727 57.976 17.1283C57.7186 16.8813 57.4963 16.581 57.3091 16.2274C57.1219 15.8738 56.9763 15.4734 56.8723 15.0262V17.6548H54.9145V6.11084H56.8723V11.6839ZM56.8723 13.3531C56.8723 13.8003 56.9243 14.1994 57.0283 14.5504C57.1349 14.9014 57.2883 15.1991 57.4885 15.4435C57.6913 15.6853 57.937 15.8699 58.2256 15.9973C58.5168 16.1247 58.8457 16.1884 59.2123 16.1884C59.5867 16.1884 59.9156 16.1273 60.199 16.0051C60.485 15.8829 60.7242 15.7022 60.9166 15.463C61.1116 15.2238 61.2585 14.9287 61.3573 14.5777C61.4561 14.2241 61.5055 13.8159 61.5055 13.3531C61.5055 12.8903 61.4561 12.4834 61.3573 12.1324C61.2585 11.7788 61.1116 11.4837 60.9166 11.2471C60.7242 11.0079 60.485 10.8272 60.199 10.705C59.9156 10.5828 59.5867 10.5217 59.2123 10.5217C58.8431 10.5217 58.5129 10.5854 58.2217 10.7128C57.9331 10.8402 57.6887 11.0248 57.4885 11.2666C57.2883 11.5084 57.1349 11.8048 57.0283 12.1558C56.9243 12.5068 56.8723 12.9059 56.8723 13.3531Z" fill="white"/>
<path d="M66.6753 17.6548H64.7175V6.11084H66.6753V17.6548Z" fill="white"/>
<path d="M76.2422 14.7727C76.1278 15.2589 75.9497 15.6944 75.7079 16.0792C75.4661 16.464 75.171 16.7903 74.8226 17.0581C74.4742 17.3259 74.079 17.5313 73.637 17.6743C73.195 17.8173 72.7179 17.8888 72.2057 17.8888C71.7793 17.8888 71.3763 17.8394 70.9967 17.7406C70.6197 17.6418 70.2726 17.5001 69.9554 17.3155C69.6382 17.1283 69.3535 16.9021 69.1013 16.6369C68.8491 16.3691 68.6359 16.0675 68.4617 15.7321C68.2875 15.3941 68.1536 15.0249 68.06 14.6245C67.9664 14.2241 67.9196 13.7977 67.9196 13.3453C67.9196 12.6693 68.021 12.0531 68.2238 11.4967C68.4292 10.9403 68.7178 10.4645 69.0896 10.0693C69.4614 9.67154 69.9073 9.36474 70.4273 9.14894C70.9473 8.93054 71.5245 8.82134 72.1589 8.82134C72.7829 8.82134 73.3484 8.92794 73.8554 9.14114C74.365 9.35434 74.7992 9.65724 75.158 10.0498C75.5168 10.4398 75.7937 10.913 75.9887 11.4694C76.1837 12.0232 76.2812 12.642 76.2812 13.3258C76.2812 13.4272 76.2786 13.5286 76.2734 13.63C76.2708 13.7314 76.263 13.838 76.25 13.9498H69.854C69.8956 14.3086 69.9801 14.6297 70.1075 14.9131C70.2375 15.1939 70.4052 15.4331 70.6106 15.6307C70.816 15.8283 71.0565 15.9791 71.3321 16.0831C71.6103 16.1871 71.9184 16.2391 72.2564 16.2391C72.7712 16.2391 73.2015 16.1169 73.5473 15.8725C73.8931 15.6281 74.1622 15.2615 74.3546 14.7727H76.2422ZM74.3429 12.5458C74.2389 11.862 74.0023 11.3433 73.6331 10.9897C73.2665 10.6335 72.7777 10.4554 72.1667 10.4554C71.8547 10.4554 71.57 10.5022 71.3126 10.5958C71.0552 10.6894 70.829 10.8259 70.634 11.0053C70.4416 11.1847 70.2817 11.4044 70.1543 11.6644C70.0269 11.9218 69.9359 12.2156 69.8813 12.5458H74.3429Z" fill="white"/>
<path d="M79.4868 17.6548H77.529V9.05534H79.4868V11.5162C79.5804 11.0872 79.7143 10.7063 79.8885 10.3735C80.0627 10.0381 80.272 9.75604 80.5164 9.52724C80.7634 9.29584 81.0429 9.12034 81.3549 9.00074C81.6695 8.88114 82.0114 8.82134 82.3806 8.82134C82.768 8.82134 83.1164 8.88764 83.4258 9.02024C83.7378 9.15024 84.0095 9.34264 84.2409 9.59744C84.4723 9.84964 84.6621 10.1616 84.8103 10.5334C84.9585 10.9026 85.0625 11.3264 85.1223 11.8048C85.2029 11.3342 85.3277 10.9143 85.4967 10.5451C85.6683 10.1759 85.8802 9.86394 86.1324 9.60914C86.3846 9.35174 86.6732 9.15674 86.9982 9.02414C87.3258 8.88894 87.6846 8.82134 88.0746 8.82134C88.5218 8.82134 88.9183 8.90974 89.2641 9.08654C89.6125 9.26074 89.905 9.51554 90.1416 9.85094C90.3808 10.1863 90.5628 10.5984 90.6876 11.0872C90.8124 11.5734 90.8748 12.1285 90.8748 12.7525V17.6548H88.917V12.9475C88.917 11.3511 88.3333 10.5529 87.1659 10.5529C86.8539 10.5529 86.5744 10.6088 86.3274 10.7206C86.0804 10.8324 85.8724 10.9962 85.7034 11.212C85.5344 11.4252 85.4044 11.6878 85.3134 11.9998C85.225 12.3118 85.1808 12.6693 85.1808 13.0723V17.6548H83.223V12.9475C83.223 11.3511 82.6393 10.5529 81.4719 10.5529C81.1599 10.5529 80.8804 10.6088 80.6334 10.7206C80.3864 10.8324 80.1784 10.9962 80.0094 11.212C79.8404 11.4252 79.7104 11.6878 79.6194 11.9998C79.531 12.3118 79.4868 12.6693 79.4868 13.0723V17.6548Z" fill="white"/>
<path d="M106.218 6.50084L102.389 17.6548H99.4324L95.6572 6.50084H97.8412L100.938 16.1377L104.081 6.50084H106.218Z" fill="white"/>
<path d="M106.196 12.1285C106.196 11.6215 106.289 11.1639 106.477 10.7557C106.664 10.3475 106.93 10.0004 107.276 9.71444C107.624 9.42584 108.047 9.20484 108.544 9.05144C109.043 8.89804 109.602 8.82134 110.221 8.82134C110.868 8.82134 111.446 8.90584 111.956 9.07484C112.468 9.24384 112.901 9.48824 113.255 9.80804C113.611 10.1278 113.883 10.5191 114.07 10.9819C114.257 11.4447 114.351 11.9686 114.351 12.5536V17.6548H112.393V15.4006C112.291 15.7854 112.138 16.1325 111.933 16.4419C111.73 16.7487 111.482 17.01 111.188 17.2258C110.894 17.439 110.56 17.6028 110.185 17.7172C109.814 17.8316 109.409 17.8888 108.973 17.8888C108.518 17.8888 108.103 17.8264 107.728 17.7016C107.357 17.5794 107.038 17.4065 106.773 17.1829C106.508 16.9593 106.302 16.6902 106.157 16.3756C106.014 16.0584 105.942 15.7074 105.942 15.3226C105.942 14.9222 106.022 14.5634 106.18 14.2462C106.339 13.929 106.566 13.6599 106.863 13.4389C107.162 13.2179 107.526 13.0489 107.955 12.9319C108.384 12.8123 108.867 12.7525 109.405 12.7525H112.393V12.5536C112.393 12.2286 112.342 11.9374 112.241 11.68C112.139 11.42 111.992 11.199 111.8 11.017C111.61 10.835 111.379 10.6959 111.106 10.5997C110.833 10.5035 110.525 10.4554 110.182 10.4554C109.833 10.4554 109.53 10.4957 109.273 10.5763C109.018 10.6543 108.807 10.7661 108.641 10.9117C108.475 11.0573 108.351 11.2328 108.271 11.4382C108.19 11.6436 108.15 11.8737 108.15 12.1285H106.196ZM109.519 14.1253C108.983 14.1253 108.577 14.215 108.302 14.3944C108.029 14.5738 107.892 14.839 107.892 15.19C107.892 15.5592 108.042 15.8426 108.341 16.0402C108.642 16.2352 109.077 16.3327 109.643 16.3327C110.044 16.3327 110.412 16.2846 110.747 16.1884C111.085 16.0896 111.375 15.9531 111.617 15.7789C111.861 15.6047 112.051 15.398 112.186 15.1588C112.324 14.917 112.393 14.6544 112.393 14.371V14.1253H109.519Z" fill="white"/>
<path d="M121.811 9.05534H123.769V17.6548H121.811V15.1198C121.715 15.5592 121.573 15.9505 121.386 16.2937C121.202 16.6369 120.977 16.9268 120.712 17.1634C120.449 17.4 120.149 17.5794 119.811 17.7016C119.473 17.8264 119.103 17.8888 118.703 17.8888C118.227 17.8888 117.803 17.8017 117.432 17.6275C117.062 17.4507 116.749 17.1946 116.492 16.8592C116.237 16.5238 116.043 16.113 115.911 15.6268C115.778 15.138 115.712 14.5816 115.712 13.9576V9.05534H117.67V13.7626C117.67 15.359 118.316 16.1572 119.608 16.1572C119.956 16.1572 120.267 16.1013 120.54 15.9895C120.813 15.8777 121.043 15.7152 121.23 15.502C121.42 15.2862 121.564 15.0223 121.663 14.7103C121.762 14.3957 121.811 14.0382 121.811 13.6378V9.05534Z" fill="white"/>
<path d="M127.161 17.6548H125.203V6.11084H127.161V17.6548Z" fill="white"/>
<path d="M134.022 17.5885C133.327 17.7861 132.71 17.8849 132.169 17.8849C131.267 17.8849 130.58 17.6158 130.11 17.0776C129.639 16.5394 129.404 15.7438 129.404 14.6908V10.6465H128.281V9.05534H129.404V7.07414H131.362V9.05534H134.022V10.6465H131.362V14.6947C131.362 15.2277 131.461 15.619 131.658 15.8686C131.856 16.1182 132.169 16.243 132.598 16.243C132.77 16.243 132.971 16.2248 133.203 16.1884C133.434 16.1494 133.707 16.0883 134.022 16.0051V17.5885Z" fill="white"/>
<defs>
<linearGradient id="paint0_linear_748_651" x1="12.0171" y1="24" x2="12.0171" y2="-6.09008e-07" gradientUnits="userSpaceOnUse">
<stop stop-color="#F4EBDD"/>
<stop offset="1" stop-color="#B0ABA2"/>
</linearGradient>
</defs>
</svg>
