<svg width="14" height="13" viewBox="0 0 14 13" fill="none" xmlns="http://www.w3.org/2000/svg">
<path d="M10.6881 4.0738C10.4388 3.93137 10.1183 3.93139 9.83345 4.07383L7.83943 5.24898L6.48635 5.9968L4.52793 7.17195C4.27868 7.31439 3.9582 7.3144 3.67333 7.17198L2.14214 6.24622C1.89288 6.1038 1.71483 5.81894 1.71481 5.49846L1.71475 3.71805C1.71474 3.43318 1.85716 3.14831 2.14202 2.97026L3.67314 2.07999C3.9224 1.93755 4.24287 1.93754 4.52774 2.07996L6.05893 3.00572C6.3082 3.14814 6.48625 3.433 6.48626 3.75348L6.48631 4.92855L7.83939 4.14512L7.83935 2.93444C7.83934 2.64957 7.69689 2.36471 7.41202 2.18668L4.56329 0.513194C4.31403 0.37077 3.99356 0.370782 3.70869 0.513226L0.788878 2.22253C0.504017 2.36498 0.361594 2.64985 0.361605 2.93471L0.361729 6.28189C0.361739 6.56676 0.504183 6.85162 0.789056 7.02965L3.67339 8.70314C3.92265 8.84556 4.24313 8.84555 4.52799 8.7031L6.4864 7.56357L7.83949 6.78013L9.7979 5.6406C10.0472 5.49815 10.3676 5.49814 10.6525 5.64056L12.1837 6.53071C12.433 6.67314 12.611 6.958 12.611 7.27847L12.6111 9.05889C12.6111 9.34375 12.4687 9.62862 12.1838 9.80668L10.6883 10.6969C10.439 10.8394 10.1186 10.8394 9.8337 10.697L8.30251 9.80682C8.05325 9.6644 7.87519 9.37954 7.87518 9.05906L7.87514 7.9196L6.52205 8.70303L6.5221 9.8781C6.52211 10.163 6.66455 10.4478 6.94942 10.6259L9.83376 12.2993C10.083 12.4418 10.4035 12.4418 10.6884 12.2993L13.5726 10.6256C13.8218 10.4832 13.9999 10.1983 13.9998 9.87783L13.9997 6.49504C13.9997 6.21017 13.8573 5.92531 13.5724 5.74728L10.6881 4.0738Z" fill="white"/>
</svg>
