<svg width="1440" height="173" viewBox="0 0 1440 173" fill="none" xmlns="http://www.w3.org/2000/svg">
<g clip-path="url(#clip0_430_7306)">
<rect x="0.5" width="1439" height="173" rx="1" fill="#1C1C1E"/>
<g style="mix-blend-mode:overlay" opacity="0.2">
<path d="M1440.5 -36.0772L842.38 -633.002L719.478 -509.924L596.575 -633.002L0.500122 -36.0772L123.402 87L0.500122 210.077L596.575 807.002L719.478 683.924L842.38 807.002L1438.45 210.077L1315.55 87L1440.5 -36.0772ZM1323.75 210.077L1112.76 423.411L975.524 285.975L918.169 343.411L1055.41 480.847L842.38 692.13L778.88 626.488L916.121 489.052L858.767 431.616L721.526 569.052L584.285 431.616L526.931 489.052L664.172 626.488L598.624 692.13L385.593 480.847L522.834 343.411L465.48 285.975L328.239 423.411L117.257 210.077L180.757 146.487L317.997 283.924L375.352 226.488L238.111 89.0513L375.352 -48.3849L317.997 -105.821L180.757 31.6153L115.209 -34.0259L328.239 -247.36L465.48 -109.924L522.834 -167.36L385.593 -304.796L596.575 -516.078L662.123 -450.437L524.883 -313.001L582.237 -255.565L719.478 -393.001L856.718 -255.565L914.073 -313.001L778.88 -452.488L844.428 -518.13L1055.41 -304.796L918.169 -167.36L975.524 -109.924L1112.76 -247.36L1323.75 -36.0772L1258.2 29.5639L1120.96 -107.872L1063.6 -50.4362L1200.84 87L1063.6 224.436L1120.96 281.872L1258.2 144.436L1323.75 210.077ZM416.319 87L719.478 390.59L1022.64 87L719.478 -216.59L416.319 87ZM719.478 275.718L533.076 87L719.478 -99.6671L905.879 87L719.478 275.718Z" fill="url(#paint0_linear_430_7306)"/>
</g>
</g>
<rect x="1" y="0.5" width="1438" height="172" rx="0.5" stroke="url(#paint11_linear_430_7306)"/>
<defs>
<linearGradient id="paint0_linear_430_7306" x1="720.502" y1="807.002" x2="720.5" y2="-633.002" gradientUnits="userSpaceOnUse">
<stop stop-color="#F4EBDD"/>
<stop offset="1" stop-color="#B0ABA2"/>
</linearGradient>
<clipPath id="clip0_430_7306">
<rect x="0.5" width="1439" height="173" rx="1" fill="white"/>
</clipPath>
</defs>
</svg>
