<svg width="25" height="25" viewBox="0 0 25 25" fill="none" xmlns="http://www.w3.org/2000/svg">
<path d="M5.43524 6.21834H18.5911V19.3742H5.43524V6.21834Z" fill="white"/>
<path d="M6.91936 20.5394H8.82978C9.00586 20.5394 9.13792 20.5922 9.26997 20.7243L10.6258 22.0712C11.735 23.1893 12.7651 23.1805 13.8744 22.0712L15.2301 20.7243C15.371 20.5922 15.4942 20.5394 15.6791 20.5394H17.5807C19.1566 20.5394 19.8873 19.8175 19.8873 18.2328V16.3312C19.8873 16.1463 19.9402 16.023 20.0722 15.8822L21.4192 14.5264C22.5373 13.4171 22.5285 12.3871 21.4192 11.2778L20.0722 9.92201C19.9402 9.78996 19.8873 9.6579 19.8873 9.48182V7.5714C19.8873 6.00433 19.1654 5.26481 17.5807 5.26481H15.6791C15.4942 5.26481 15.371 5.22079 15.2301 5.08873L13.8744 3.74176C12.7651 2.62368 11.735 2.63248 10.6258 3.74176L9.26997 5.08873C9.13792 5.22079 9.00586 5.26481 8.82978 5.26481H6.91936C5.34349 5.26481 4.61277 5.98672 4.61277 7.5714V9.48182C4.61277 9.6579 4.56875 9.78996 4.4367 9.92201L3.08972 11.2778C1.97164 12.3871 1.98044 13.4171 3.08972 14.5264L4.4367 15.8822C4.56875 16.023 4.61277 16.1463 4.61277 16.3312V18.2328C4.61277 19.8087 5.34349 20.5394 6.91936 20.5394ZM11.2684 17.2027C10.9691 17.2027 10.7226 17.0883 10.4937 16.7802L8.28395 14.0686C8.15189 13.8925 8.07266 13.69 8.07266 13.4963C8.07266 13.0914 8.38079 12.7656 8.78577 12.7656C9.03227 12.7656 9.22595 12.8537 9.44605 13.1442L11.2332 15.4508L14.9924 9.41139C15.1597 9.13847 15.3886 9.00642 15.6263 9.00642C16.0049 9.00642 16.3658 9.27053 16.3658 9.67551C16.3658 9.87799 16.2514 10.0805 16.1457 10.2566L12.0079 16.7802C11.8231 17.0619 11.5678 17.2027 11.2684 17.2027Z" fill="#0A84FF"/>
</svg>
