<svg width="224" height="41" viewBox="0 0 224 41" fill="none" xmlns="http://www.w3.org/2000/svg">
<path d="M40.357 17.3812L23.7188 0.799957L20.3 4.21876L16.8812 0.799957L0.300003 17.3812L3.71881 20.8L0.300003 24.2188L16.8812 40.8L20.3 37.3812L23.7188 40.8L40.3 24.2188L36.8812 20.8L40.357 17.3812ZM37.1091 24.2188L31.2402 30.1447L27.4225 26.327L25.8271 27.9225L29.6447 31.7401L23.7188 37.6091L21.9524 35.7857L25.7701 31.9681L24.1747 30.3726L20.357 34.1903L16.5393 30.3726L14.9439 31.9681L18.7615 35.7857L16.9382 37.6091L11.0123 31.7401L14.8299 27.9225L13.2345 26.327L9.41681 30.1447L3.54787 24.2188L5.31425 22.4524L9.13191 26.27L10.7274 24.6746L6.90969 20.8569L10.7274 17.0393L9.13191 15.4438L5.31425 19.2615L3.49089 17.4381L9.41681 11.5122L13.2345 15.3299L14.8299 13.7344L11.0123 9.91677L16.8812 4.04782L18.7046 5.87118L14.8869 9.68885L16.4823 11.2843L20.3 7.46663L24.1177 11.2843L25.7131 9.68885L21.9524 5.8142L23.7758 3.99084L29.6447 9.91677L25.8271 13.7344L27.4225 15.3299L31.2402 11.5122L37.1091 17.3812L35.2858 19.2045L31.4681 15.3869L29.8727 16.9823L33.6903 20.8L29.8727 24.6176L31.4681 26.2131L35.2858 22.3954L37.1091 24.2188ZM11.867 20.8L20.3 29.233L28.7331 20.8L20.3 12.3669L11.867 20.8ZM20.3 26.0421L15.1148 20.8L20.3 15.6148L25.4852 20.8L20.3 26.0421Z" fill="url(#paint0_linear_206_138)"/>
<path d="M65.058 11.635V14.651H55.776V19.487H64.291V22.412H55.776V27.209H65.305V30.225H52.357V11.635H65.058Z" fill="white"/>
<path d="M70.5223 30.225H67.2593V15.8925H70.5223V19.994C70.6783 19.279 70.9014 18.6441 71.1918 18.0895C71.4821 17.5305 71.8309 17.0603 72.2383 16.679C72.6499 16.2933 73.1158 16.0008 73.6358 15.8015C74.1601 15.6021 74.7299 15.5025 75.3453 15.5025C75.9909 15.5025 76.5716 15.613 77.0873 15.834C77.6073 16.0506 78.0601 16.3713 78.4458 16.796C78.8314 17.2163 79.1478 17.7363 79.3948 18.356C79.6418 18.9713 79.8151 19.6776 79.9148 20.475C80.0491 19.6906 80.2571 18.9908 80.5388 18.3755C80.8248 17.7601 81.1779 17.2401 81.5983 16.8155C82.0186 16.3865 82.4996 16.0615 83.0413 15.8405C83.5873 15.6151 84.1853 15.5025 84.8353 15.5025C85.5806 15.5025 86.2414 15.6498 86.8178 15.9445C87.3984 16.2348 87.8859 16.6595 88.2803 17.2185C88.6789 17.7775 88.9823 18.4643 89.1903 19.279C89.3983 20.0893 89.5023 21.0145 89.5023 22.0545V30.225H86.2393V22.3795C86.2393 19.7188 85.2664 18.3885 83.3208 18.3885C82.8008 18.3885 82.3349 18.4816 81.9233 18.668C81.5116 18.8543 81.1649 19.1273 80.8833 19.487C80.6016 19.8423 80.3849 20.28 80.2333 20.8C80.0859 21.32 80.0123 21.9158 80.0123 22.5875V30.225H76.7493V22.3795C76.7493 19.7188 75.7764 18.3885 73.8308 18.3885C73.3108 18.3885 72.8449 18.4816 72.4333 18.668C72.0216 18.8543 71.6749 19.1273 71.3933 19.487C71.1116 19.8423 70.8949 20.28 70.7433 20.8C70.5959 21.32 70.5223 21.9158 70.5223 22.5875V30.225Z" fill="white"/>
<path d="M95.0872 20.2735C95.2605 19.5281 95.5032 18.8608 95.8152 18.2715C96.1272 17.6821 96.4977 17.1838 96.9267 16.7765C97.36 16.3648 97.8475 16.0506 98.3892 15.834C98.9352 15.613 99.5267 15.5025 100.164 15.5025C100.74 15.5025 101.286 15.587 101.802 15.756C102.322 15.925 102.801 16.1655 103.238 16.4775C103.676 16.7895 104.07 17.1708 104.421 17.6215C104.772 18.0678 105.071 18.5705 105.318 19.1295C105.565 19.6885 105.754 20.2995 105.884 20.9625C106.018 21.6211 106.085 22.3188 106.085 23.0555C106.085 23.7921 106.018 24.492 105.884 25.155C105.754 25.8136 105.565 26.4225 105.318 26.9815C105.071 27.5405 104.772 28.0453 104.421 28.496C104.07 28.9423 103.676 29.3236 103.238 29.64C102.801 29.952 102.322 30.1925 101.802 30.3615C101.286 30.5305 100.74 30.615 100.164 30.615C99.5267 30.615 98.9352 30.5045 98.3892 30.2835C97.8475 30.0668 97.36 29.7548 96.9267 29.3475C96.4977 28.9358 96.1272 28.4353 95.8152 27.846C95.5032 27.2566 95.2605 26.5893 95.0872 25.844V30.225H91.8242V10.985H95.0872V20.2735ZM95.0872 23.0555C95.0872 23.8008 95.1739 24.466 95.3472 25.051C95.5248 25.636 95.7805 26.1321 96.1142 26.5395C96.4522 26.9425 96.8617 27.2501 97.3427 27.4625C97.828 27.6748 98.3762 27.781 98.9872 27.781C99.6112 27.781 100.159 27.6791 100.632 27.4755C101.108 27.2718 101.507 26.9706 101.828 26.572C102.153 26.1733 102.398 25.6815 102.562 25.0965C102.727 24.5071 102.809 23.8268 102.809 23.0555C102.809 22.2841 102.727 21.606 102.562 21.021C102.398 20.4316 102.153 19.9398 101.828 19.5455C101.507 19.1468 101.108 18.8456 100.632 18.642C100.159 18.4383 99.6112 18.3365 98.9872 18.3365C98.3718 18.3365 97.8215 18.4426 97.3362 18.655C96.8552 18.8673 96.4478 19.175 96.1142 19.578C95.7805 19.981 95.5248 20.475 95.3472 21.06C95.1739 21.645 95.0872 22.3101 95.0872 23.0555Z" fill="white"/>
<path d="M111.426 30.225H108.163V10.985H111.426V30.225Z" fill="white"/>
<path d="M127.37 25.4215C127.18 26.2318 126.883 26.9576 126.48 27.599C126.077 28.2403 125.585 28.7841 125.004 29.2305C124.424 29.6768 123.765 30.0191 123.028 30.2575C122.292 30.4958 121.497 30.615 120.643 30.615C119.932 30.615 119.261 30.5326 118.628 30.368C118 30.2033 117.421 29.9671 116.892 29.6595C116.364 29.3475 115.889 28.9705 115.469 28.5285C115.049 28.0821 114.693 27.5795 114.403 27.0205C114.113 26.4571 113.889 25.8418 113.733 25.1745C113.577 24.5071 113.499 23.7965 113.499 23.0425C113.499 21.9158 113.668 20.8888 114.006 19.9615C114.349 19.0341 114.83 18.2411 115.449 17.5825C116.069 16.9195 116.812 16.4081 117.679 16.0485C118.546 15.6845 119.508 15.5025 120.565 15.5025C121.605 15.5025 122.547 15.6801 123.392 16.0355C124.242 16.3908 124.965 16.8956 125.563 17.55C126.161 18.2 126.623 18.9886 126.948 19.916C127.273 20.839 127.435 21.8703 127.435 23.01C127.435 23.179 127.431 23.348 127.422 23.517C127.418 23.686 127.405 23.8636 127.383 24.05H116.723C116.793 24.648 116.934 25.1831 117.146 25.6555C117.363 26.1235 117.642 26.5221 117.984 26.8515C118.327 27.1808 118.728 27.4321 119.187 27.6055C119.651 27.7788 120.164 27.8655 120.727 27.8655C121.585 27.8655 122.303 27.6618 122.879 27.2545C123.455 26.8471 123.904 26.2361 124.224 25.4215H127.37ZM124.205 21.71C124.032 20.5703 123.637 19.7058 123.022 19.1165C122.411 18.5228 121.596 18.226 120.578 18.226C120.058 18.226 119.583 18.304 119.154 18.46C118.725 18.616 118.348 18.8435 118.023 19.1425C117.703 19.4415 117.436 19.8076 117.224 20.241C117.012 20.67 116.86 21.1596 116.769 21.71H124.205Z" fill="white"/>
<path d="M132.778 30.225H129.515V15.8925H132.778V19.994C132.934 19.279 133.157 18.6441 133.448 18.0895C133.738 17.5305 134.087 17.0603 134.494 16.679C134.906 16.2933 135.372 16.0008 135.892 15.8015C136.416 15.6021 136.986 15.5025 137.601 15.5025C138.247 15.5025 138.827 15.613 139.343 15.834C139.863 16.0506 140.316 16.3713 140.702 16.796C141.087 17.2163 141.404 17.7363 141.651 18.356C141.898 18.9713 142.071 19.6776 142.171 20.475C142.305 19.6906 142.513 18.9908 142.795 18.3755C143.081 17.7601 143.434 17.2401 143.854 16.8155C144.274 16.3865 144.755 16.0615 145.297 15.8405C145.843 15.6151 146.441 15.5025 147.091 15.5025C147.836 15.5025 148.497 15.6498 149.074 15.9445C149.654 16.2348 150.142 16.6595 150.536 17.2185C150.935 17.7775 151.238 18.4643 151.446 19.279C151.654 20.0893 151.758 21.0145 151.758 22.0545V30.225H148.495V22.3795C148.495 19.7188 147.522 18.3885 145.577 18.3885C145.057 18.3885 144.591 18.4816 144.179 18.668C143.767 18.8543 143.421 19.1273 143.139 19.487C142.857 19.8423 142.641 20.28 142.489 20.8C142.342 21.32 142.268 21.9158 142.268 22.5875V30.225H139.005V22.3795C139.005 19.7188 138.032 18.3885 136.087 18.3885C135.567 18.3885 135.101 18.4816 134.689 18.668C134.277 18.8543 133.931 19.1273 133.649 19.487C133.367 19.8423 133.151 20.28 132.999 20.8C132.852 21.32 132.778 21.9158 132.778 22.5875V30.225Z" fill="white"/>
<path d="M177.331 11.635L170.948 30.225H166.021L159.729 11.635H163.369L168.53 27.6965L173.769 11.635H177.331Z" fill="white"/>
<path d="M177.293 21.0145C177.293 20.1695 177.449 19.4068 177.761 18.7265C178.073 18.0461 178.517 17.4676 179.094 16.991C179.674 16.51 180.378 16.1416 181.206 15.886C182.038 15.6303 182.97 15.5025 184.001 15.5025C185.08 15.5025 186.044 15.6433 186.894 15.925C187.747 16.2066 188.469 16.614 189.058 17.147C189.652 17.68 190.105 18.3321 190.417 19.1035C190.729 19.8748 190.885 20.748 190.885 21.723V30.225H187.622V26.468C187.453 27.1093 187.197 27.6878 186.855 28.2035C186.517 28.7148 186.103 29.1503 185.613 29.51C185.123 29.8653 184.567 30.1383 183.943 30.329C183.323 30.5196 182.649 30.615 181.921 30.615C181.163 30.615 180.472 30.511 179.848 30.303C179.228 30.0993 178.697 29.8111 178.255 29.4385C177.813 29.0658 177.471 28.6173 177.228 28.093C176.99 27.5643 176.871 26.9793 176.871 26.338C176.871 25.6706 177.003 25.0726 177.267 24.544C177.531 24.0153 177.911 23.5668 178.405 23.1985C178.903 22.8301 179.51 22.5485 180.225 22.3535C180.94 22.1541 181.746 22.0545 182.643 22.0545H187.622V21.723C187.622 21.1813 187.537 20.696 187.368 20.267C187.199 19.8336 186.954 19.4653 186.634 19.162C186.317 18.8586 185.932 18.6268 185.477 18.4665C185.022 18.3061 184.508 18.226 183.936 18.226C183.355 18.226 182.851 18.2931 182.422 18.4275C181.997 18.5575 181.646 18.7438 181.369 18.9865C181.091 19.2291 180.885 19.5216 180.751 19.864C180.617 20.2063 180.55 20.5898 180.55 21.0145H177.293ZM182.831 24.3425C181.938 24.3425 181.262 24.492 180.803 24.791C180.348 25.09 180.121 25.532 180.121 26.117C180.121 26.7323 180.37 27.2046 180.868 27.534C181.371 27.859 182.094 28.0215 183.039 28.0215C183.706 28.0215 184.32 27.9413 184.879 27.781C185.442 27.6163 185.925 27.3888 186.328 27.0985C186.735 26.8081 187.052 26.4636 187.277 26.065C187.507 25.662 187.622 25.2243 187.622 24.752V24.3425H182.831Z" fill="white"/>
<path d="M203.319 15.8925H206.582V30.225H203.319V26C203.159 26.7323 202.923 27.3845 202.611 27.9565C202.303 28.5285 201.928 29.0116 201.486 29.406C201.048 29.8003 200.548 30.0993 199.985 30.303C199.421 30.511 198.806 30.615 198.139 30.615C197.346 30.615 196.639 30.4698 196.02 30.1795C195.404 29.8848 194.882 29.458 194.453 28.899C194.028 28.34 193.706 27.6553 193.485 26.845C193.264 26.0303 193.153 25.103 193.153 24.063V15.8925H196.416V23.738C196.416 26.3986 197.493 27.729 199.647 27.729C200.227 27.729 200.745 27.6358 201.2 27.4495C201.655 27.2631 202.039 26.9923 202.351 26.637C202.667 26.2773 202.907 25.8375 203.072 25.3175C203.237 24.7931 203.319 24.1973 203.319 23.53V15.8925Z" fill="white"/>
<path d="M212.235 30.225H208.972V10.985H212.235V30.225Z" fill="white"/>
<path d="M223.669 30.1145C222.512 30.4438 221.483 30.6085 220.582 30.6085C219.078 30.6085 217.934 30.16 217.15 29.263C216.366 28.366 215.973 27.04 215.973 25.285V18.5445H214.101V15.8925H215.973V12.5905H219.236V15.8925H223.669V18.5445H219.236V25.2915C219.236 26.1798 219.401 26.832 219.73 27.248C220.06 27.664 220.582 27.872 221.297 27.872C221.583 27.872 221.919 27.8416 222.304 27.781C222.69 27.716 223.145 27.6141 223.669 27.4755V30.1145Z" fill="white"/>
<defs>
<linearGradient id="paint0_linear_206_138" x1="20.3285" y1="40.8" x2="20.3284" y2="0.799956" gradientUnits="userSpaceOnUse">
<stop stop-color="#F4EBDD"/>
<stop offset="1" stop-color="#B0ABA2"/>
</linearGradient>
</defs>
</svg>
