<svg width="71" height="71" viewBox="0 0 71 71" fill="none" xmlns="http://www.w3.org/2000/svg">
<path d="M70.3 29.3L41.1 0.200012L35.1 6.20001L29.1 0.200012L0 29.3L6 35.3L0 41.3L29.1 70.4L35.1 64.4L41.1 70.4L70.2 41.3L64.2 35.3L70.3 29.3ZM64.6 41.3L54.3 51.7L47.6 45L44.8 47.8L51.5 54.5L41.1 64.8L38 61.6L44.7 54.9L41.9 52.1L35.2 58.8L28.5 52.1L25.7 54.9L32.4 61.6L29.2 64.8L18.8 54.5L25.5 47.8L22.7 45L16 51.7L5.7 41.3L8.8 38.2L15.5 44.9L18.3 42.1L11.6 35.4L18.3 28.7L15.5 25.9L8.8 32.6L5.6 29.4L16 19L22.7 25.7L25.5 22.9L18.8 16.2L29.1 5.90001L32.3 9.10001L25.6 15.8L28.4 18.6L35.1 11.9L41.8 18.6L44.6 15.8L38 9.00001L41.2 5.80001L51.5 16.2L44.8 22.9L47.6 25.7L54.3 19L64.6 29.3L61.4 32.5L54.7 25.8L51.9 28.6L58.6 35.3L51.9 42L54.7 44.8L61.4 38.1L64.6 41.3ZM20.3 35.3L35.1 50.1L49.9 35.3L35.1 20.5L20.3 35.3ZM35.1 44.5L26 35.3L35.1 26.2L44.2 35.3L35.1 44.5Z" fill="white"/>
</svg>
