<svg width="71" height="71" viewBox="0 0 71 71" fill="none" xmlns="http://www.w3.org/2000/svg">
<path d="M70.3 29.1L41.1 0L35.1 6L29.1 0L0 29.1L6 35.1L0 41.1L29.1 70.2L35.1 64.2L41.1 70.2L70.2 41.1L64.2 35.1L70.3 29.1ZM64.6 41.1L54.3 51.5L47.6 44.8L44.8 47.6L51.5 54.3L41.1 64.6L38 61.4L44.7 54.7L41.9 51.9L35.2 58.6L28.5 51.9L25.7 54.7L32.4 61.4L29.2 64.6L18.8 54.3L25.5 47.6L22.7 44.8L16 51.5L5.7 41.1L8.8 38L15.5 44.7L18.3 41.9L11.6 35.2L18.3 28.5L15.5 25.7L8.8 32.4L5.6 29.2L16 18.8L22.7 25.5L25.5 22.7L18.8 16L29.1 5.7L32.3 8.9L25.6 15.6L28.4 18.4L35.1 11.7L41.8 18.4L44.6 15.6L38 8.8L41.2 5.6L51.5 16L44.8 22.7L47.6 25.5L54.3 18.8L64.6 29.1L61.4 32.3L54.7 25.6L51.9 28.4L58.6 35.1L51.9 41.8L54.7 44.6L61.4 37.9L64.6 41.1ZM20.3 35.1L35.1 49.9L49.9 35.1L35.1 20.3L20.3 35.1ZM35.1 44.3L26 35.1L35.1 26L44.2 35.1L35.1 44.3Z" fill="black"/>
</svg>
