<svg width="71" height="71" viewBox="0 0 71 71" fill="none" xmlns="http://www.w3.org/2000/svg">
<path d="M70.3 29.7L41.1 0.600037L35.1 6.60004L29.1 0.600037L0 29.7L6 35.7L0 41.7L29.1 70.8L35.1 64.8L41.1 70.8L70.2 41.7L64.2 35.7L70.3 29.7ZM64.6 41.7L54.3 52.1L47.6 45.4L44.8 48.2L51.5 54.9L41.1 65.2L38 62L44.7 55.3L41.9 52.5L35.2 59.2L28.5 52.5L25.7 55.3L32.4 62L29.2 65.2L18.8 54.9L25.5 48.2L22.7 45.4L16 52.1L5.7 41.7L8.8 38.6L15.5 45.3L18.3 42.5L11.6 35.8L18.3 29.1L15.5 26.3L8.8 33L5.6 29.8L16 19.4L22.7 26.1L25.5 23.3L18.8 16.6L29.1 6.30004L32.3 9.50004L25.6 16.2L28.4 19L35.1 12.3L41.8 19L44.6 16.2L38 9.40004L41.2 6.20004L51.5 16.6L44.8 23.3L47.6 26.1L54.3 19.4L64.6 29.7L61.4 32.9L54.7 26.2L51.9 29L58.6 35.7L51.9 42.4L54.7 45.2L61.4 38.5L64.6 41.7ZM20.3 35.7L35.1 50.5L49.9 35.7L35.1 20.9L20.3 35.7ZM35.1 44.9L26 35.7L35.1 26.6L44.2 35.7L35.1 44.9Z" fill="url(#paint0_linear_206_126)"/>
<defs>
<linearGradient id="paint0_linear_206_126" x1="35.15" y1="70.8" x2="35.15" y2="0.600039" gradientUnits="userSpaceOnUse">
<stop stop-color="#2F2F32"/>
<stop offset="1" stop-color="#161617"/>
</linearGradient>
</defs>
</svg>
