<svg width="20" height="22" viewBox="0 0 20 22" fill="none" xmlns="http://www.w3.org/2000/svg">
<path fill-rule="evenodd" clip-rule="evenodd" d="M3.99719 0.511336L9.99719 0.511114L9.99728 3.01111L3.99728 3.01134L3.99719 0.511336ZM2.49734 4.51139L2.49722 1.26139L0.24722 1.26147L0.247794 16.7615L6.74779 16.7612L6.74742 6.76123L13.7474 6.76097L13.7472 1.26097L11.4972 1.26106L11.4973 4.51106L2.49734 4.51139ZM8.24748 8.26118L19.7475 8.26075L19.748 21.7608L8.24798 21.7612L8.24748 8.26118ZM12.9977 13.761L16.4977 13.7609L16.4976 12.2609L12.9976 12.261L12.9977 13.761ZM16.4978 17.7609L11.4978 17.7611L11.4978 16.2611L16.4978 16.2609L16.4978 17.7609Z" fill="url(#paint0_linear_836_28617)"/>
<defs>
<linearGradient id="paint0_linear_836_28617" x1="9.99798" y1="21.7611" x2="9.9972" y2="0.511114" gradientUnits="userSpaceOnUse">
<stop stop-color="#EBEBFC"/>
<stop offset="1" stop-color="#A2A3AE"/>
</linearGradient>
</defs>
</svg>
