<svg width="160" height="161" viewBox="0 0 160 161" fill="none" xmlns="http://www.w3.org/2000/svg">
<path d="M0 80.264C0 14.384 14.0561 0.264038 79.638 0.264038C145.22 0.264038 159.276 14.384 159.276 80.264C159.276 146.144 145.22 160.264 79.638 160.264C14.0561 160.264 0 146.144 0 80.264Z" fill="url(#paint0_linear_354_12720)"/>
<g filter="url(#filter0_d_354_12720)">
<path d="M114.788 74.2641L85.588 45.1641L79.588 51.1641L73.588 45.1641L44.488 74.2641L50.488 80.2641L44.488 86.2641L73.588 115.364L79.588 109.364L85.588 115.364L114.688 86.2641L108.688 80.2641L114.788 74.2641ZM109.088 86.2641L98.788 96.6641L92.088 89.9641L89.288 92.7641L95.988 99.4641L85.588 109.764L82.488 106.564L89.188 99.8641L86.388 97.0641L79.688 103.764L72.988 97.0641L70.188 99.8641L76.888 106.564L73.688 109.764L63.288 99.4641L69.988 92.7641L67.188 89.9641L60.488 96.6641L50.188 86.2641L53.288 83.1641L59.988 89.8641L62.788 87.0641L56.088 80.3641L62.788 73.6641L59.988 70.8641L53.288 77.5641L50.088 74.3641L60.488 63.9641L67.188 70.6641L69.988 67.8641L63.288 61.1641L73.588 50.8641L76.788 54.0641L70.088 60.7641L72.888 63.5641L79.588 56.8641L86.288 63.5641L89.088 60.7641L82.488 53.9641L85.688 50.7641L95.988 61.1641L89.288 67.8641L92.088 70.6641L98.788 63.9641L109.088 74.2641L105.888 77.4641L99.188 70.7641L96.388 73.5641L103.088 80.2641L96.388 86.9641L99.188 89.7641L105.888 83.0641L109.088 86.2641ZM64.788 80.2641L79.588 95.0641L94.388 80.2641L79.588 65.4641L64.788 80.2641ZM79.588 89.4641L70.488 80.2641L79.588 71.1641L88.688 80.2641L79.588 89.4641Z" fill="url(#paint1_linear_354_12720)"/>
</g>
<defs>
<filter id="filter0_d_354_12720" x="40.488" y="45.1641" width="78.3" height="78.2" filterUnits="userSpaceOnUse" color-interpolation-filters="sRGB">
<feFlood flood-opacity="0" result="BackgroundImageFix"/>
<feColorMatrix in="SourceAlpha" type="matrix" values="0 0 0 0 0 0 0 0 0 0 0 0 0 0 0 0 0 0 127 0" result="hardAlpha"/>
<feOffset dy="4"/>
<feGaussianBlur stdDeviation="2"/>
<feComposite in2="hardAlpha" operator="out"/>
<feColorMatrix type="matrix" values="0 0 0 0 0 0 0 0 0 0 0 0 0 0 0 0 0 0 0.25 0"/>
<feBlend mode="normal" in2="BackgroundImageFix" result="effect1_dropShadow_354_12720"/>
<feBlend mode="normal" in="SourceGraphic" in2="effect1_dropShadow_354_12720" result="shape"/>
</filter>
<linearGradient id="paint0_linear_354_12720" x1="79.638" y1="160.264" x2="79.6378" y2="0.264034" gradientUnits="userSpaceOnUse">
<stop stop-color="#DECAAB"/>
<stop offset="1" stop-color="#FBEFDC"/>
</linearGradient>
<linearGradient id="paint1_linear_354_12720" x1="79.638" y1="115.364" x2="79.638" y2="45.1641" gradientUnits="userSpaceOnUse">
<stop stop-color="#2F2F32"/>
<stop offset="1" stop-color="#161617"/>
</linearGradient>
</defs>
</svg>
