<svg width="160" height="161" viewBox="0 0 160 161" fill="none" xmlns="http://www.w3.org/2000/svg">
<path d="M0 80.632C0 14.752 14.0561 0.632019 79.638 0.632019C145.22 0.632019 159.276 14.752 159.276 80.632C159.276 146.512 145.22 160.632 79.638 160.632C14.0561 160.632 0 146.512 0 80.632Z" fill="url(#paint0_linear_217_30928)"/>
<g filter="url(#filter0_d_217_30928)">
<path d="M114.788 74.632L85.588 45.532L79.588 51.532L73.588 45.532L44.488 74.632L50.488 80.632L44.488 86.632L73.588 115.732L79.588 109.732L85.588 115.732L114.688 86.632L108.688 80.632L114.788 74.632ZM109.088 86.632L98.788 97.032L92.088 90.332L89.288 93.132L95.988 99.832L85.588 110.132L82.488 106.932L89.188 100.232L86.388 97.432L79.688 104.132L72.988 97.432L70.188 100.232L76.888 106.932L73.688 110.132L63.288 99.832L69.988 93.132L67.188 90.332L60.488 97.032L50.188 86.632L53.288 83.532L59.988 90.232L62.788 87.432L56.088 80.732L62.788 74.032L59.988 71.232L53.288 77.932L50.088 74.732L60.488 64.332L67.188 71.032L69.988 68.232L63.288 61.532L73.588 51.232L76.788 54.432L70.088 61.132L72.888 63.932L79.588 57.232L86.288 63.932L89.088 61.132L82.488 54.332L85.688 51.132L95.988 61.532L89.288 68.232L92.088 71.032L98.788 64.332L109.088 74.632L105.888 77.832L99.188 71.132L96.388 73.932L103.088 80.632L96.388 87.332L99.188 90.132L105.888 83.432L109.088 86.632ZM64.788 80.632L79.588 95.432L94.388 80.632L79.588 65.832L64.788 80.632ZM79.588 89.832L70.488 80.632L79.588 71.532L88.688 80.632L79.588 89.832Z" fill="url(#paint1_linear_217_30928)"/>
</g>
<defs>
<filter id="filter0_d_217_30928" x="40.488" y="45.532" width="78.3" height="78.2" filterUnits="userSpaceOnUse" color-interpolation-filters="sRGB">
<feFlood flood-opacity="0" result="BackgroundImageFix"/>
<feColorMatrix in="SourceAlpha" type="matrix" values="0 0 0 0 0 0 0 0 0 0 0 0 0 0 0 0 0 0 127 0" result="hardAlpha"/>
<feOffset dy="4"/>
<feGaussianBlur stdDeviation="2"/>
<feComposite in2="hardAlpha" operator="out"/>
<feColorMatrix type="matrix" values="0 0 0 0 0 0 0 0 0 0 0 0 0 0 0 0 0 0 0.25 0"/>
<feBlend mode="normal" in2="BackgroundImageFix" result="effect1_dropShadow_217_30928"/>
<feBlend mode="normal" in="SourceGraphic" in2="effect1_dropShadow_217_30928" result="shape"/>
</filter>
<linearGradient id="paint0_linear_217_30928" x1="79.638" y1="160.632" x2="79.638" y2="0.632024" gradientUnits="userSpaceOnUse">
<stop stop-color="#2F2F32"/>
<stop offset="1" stop-color="#161617"/>
</linearGradient>
<linearGradient id="paint1_linear_217_30928" x1="79.638" y1="115.732" x2="79.6379" y2="45.532" gradientUnits="userSpaceOnUse">
<stop stop-color="#F4EBDD"/>
<stop offset="1" stop-color="#B0ABA2"/>
</linearGradient>
</defs>
</svg>
