<svg width="160" height="161" viewBox="0 0 160 161" fill="none" xmlns="http://www.w3.org/2000/svg">
<path d="M0.552063 80.6321C0.552063 14.7521 14.6082 0.63208 80.1901 0.63208C145.772 0.63208 159.828 14.7521 159.828 80.6321C159.828 146.512 145.772 160.632 80.1901 160.632C14.6082 160.632 0.552063 146.512 0.552063 80.6321Z" fill="url(#paint0_linear_354_12692)"/>
<g filter="url(#filter0_d_354_12692)">
<path d="M115.34 74.632L86.1401 45.532L80.1401 51.532L74.1401 45.532L45.0401 74.632L51.0401 80.632L45.0401 86.632L74.1401 115.732L80.1401 109.732L86.1401 115.732L115.24 86.632L109.24 80.632L115.34 74.632ZM109.64 86.632L99.3401 97.032L92.6401 90.332L89.8401 93.132L96.5401 99.832L86.1401 110.132L83.0401 106.932L89.7401 100.232L86.9401 97.432L80.2401 104.132L73.5401 97.432L70.7401 100.232L77.4401 106.932L74.2401 110.132L63.8401 99.832L70.5401 93.132L67.7401 90.332L61.0401 97.032L50.7401 86.632L53.8401 83.532L60.5401 90.232L63.3401 87.432L56.6401 80.732L63.3401 74.032L60.5401 71.232L53.8401 77.932L50.6401 74.732L61.0401 64.332L67.7401 71.032L70.5401 68.232L63.8401 61.532L74.1401 51.232L77.3401 54.432L70.6401 61.132L73.4401 63.932L80.1401 57.232L86.8401 63.932L89.6401 61.132L83.0401 54.332L86.2401 51.132L96.5401 61.532L89.8401 68.232L92.6401 71.032L99.3401 64.332L109.64 74.632L106.44 77.832L99.7401 71.132L96.9401 73.932L103.64 80.632L96.9401 87.332L99.7401 90.132L106.44 83.432L109.64 86.632ZM65.3401 80.632L80.1401 95.432L94.9401 80.632L80.1401 65.832L65.3401 80.632ZM80.1401 89.832L71.0401 80.632L80.1401 71.532L89.2401 80.632L80.1401 89.832Z" fill="url(#paint1_linear_354_12692)"/>
</g>
<defs>
<filter id="filter0_d_354_12692" x="41.0401" y="45.532" width="78.3" height="78.2" filterUnits="userSpaceOnUse" color-interpolation-filters="sRGB">
<feFlood flood-opacity="0" result="BackgroundImageFix"/>
<feColorMatrix in="SourceAlpha" type="matrix" values="0 0 0 0 0 0 0 0 0 0 0 0 0 0 0 0 0 0 127 0" result="hardAlpha"/>
<feOffset dy="4"/>
<feGaussianBlur stdDeviation="2"/>
<feComposite in2="hardAlpha" operator="out"/>
<feColorMatrix type="matrix" values="0 0 0 0 0.3125 0 0 0 0 0.307993 0 0 0 0 0.300781 0 0 0 0.5 0"/>
<feBlend mode="normal" in2="BackgroundImageFix" result="effect1_dropShadow_354_12692"/>
<feBlend mode="normal" in="SourceGraphic" in2="effect1_dropShadow_354_12692" result="shape"/>
</filter>
<linearGradient id="paint0_linear_354_12692" x1="80.1901" y1="160.632" x2="80.1901" y2="0.63208" gradientUnits="userSpaceOnUse">
<stop stop-color="#2E2E50"/>
<stop offset="1" stop-color="#101323"/>
</linearGradient>
<linearGradient id="paint1_linear_354_12692" x1="80.1901" y1="115.732" x2="80.19" y2="45.532" gradientUnits="userSpaceOnUse">
<stop stop-color="#DECAAB"/>
<stop offset="1" stop-color="#FBEFDC"/>
</linearGradient>
</defs>
</svg>
