<svg width="70" height="70" viewBox="0 0 70 70" fill="none" xmlns="http://www.w3.org/2000/svg">
<path d="M56.2131 20.8579V20.8579C48.4026 28.6684 48.4026 41.3317 56.2131 49.1422V49.1422" stroke="url(#paint0_linear_354_12634)" stroke-width="2"/>
<path d="M49.1421 13.7867V13.7867C41.3316 21.5972 28.6683 21.5972 20.8578 13.7867V13.7867" stroke="url(#paint1_linear_354_12634)" stroke-width="2"/>
<path d="M13.7869 49.1421V49.1421C21.5974 41.3316 21.5974 28.6683 13.7869 20.8578V20.8578" stroke="url(#paint2_linear_354_12634)" stroke-width="2"/>
<path d="M20.8579 56.2133V56.2133C28.6684 48.4028 41.3317 48.4028 49.1422 56.2133V56.2133" stroke="url(#paint3_linear_354_12634)" stroke-width="2"/>
<rect x="16.6151" y="35" width="26" height="26" transform="rotate(-45 16.6151 35)" stroke="url(#paint4_linear_354_12634)" stroke-width="2"/>
<rect x="1" y="1" width="68" height="68" rx="34" stroke="url(#paint5_linear_354_12634)" stroke-width="2"/>
<defs>
<linearGradient id="paint0_linear_354_12634" x1="63.2842" y1="42.0711" x2="49.1421" y2="27.929" gradientUnits="userSpaceOnUse">
<stop stop-color="#456857"/>
<stop offset="1" stop-color="#1F2924"/>
</linearGradient>
<linearGradient id="paint1_linear_354_12634" x1="27.9289" y1="6.71567" x2="42.071" y2="20.8578" gradientUnits="userSpaceOnUse">
<stop stop-color="#456857"/>
<stop offset="1" stop-color="#1F2924"/>
</linearGradient>
<linearGradient id="paint2_linear_354_12634" x1="6.7158" y1="27.9289" x2="20.8579" y2="42.071" gradientUnits="userSpaceOnUse">
<stop stop-color="#456857"/>
<stop offset="1" stop-color="#1F2924"/>
</linearGradient>
<linearGradient id="paint3_linear_354_12634" x1="42.0711" y1="63.2843" x2="27.929" y2="49.1422" gradientUnits="userSpaceOnUse">
<stop stop-color="#456857"/>
<stop offset="1" stop-color="#1F2924"/>
</linearGradient>
<linearGradient id="paint4_linear_354_12634" x1="29.2009" y1="63" x2="29.2009" y2="35" gradientUnits="userSpaceOnUse">
<stop stop-color="#456857"/>
<stop offset="1" stop-color="#1F2924"/>
</linearGradient>
<linearGradient id="paint5_linear_354_12634" x1="35" y1="70" x2="35" y2="2.26141e-06" gradientUnits="userSpaceOnUse">
<stop stop-color="#456857"/>
<stop offset="1" stop-color="#1F2924"/>
</linearGradient>
</defs>
</svg>
